<?xml version="1.0" encoding="utf-8" standalone="no"?>
<!DOCTYPE svg PUBLIC "-//W3C//DTD SVG 1.1//EN"
  "http://www.w3.org/Graphics/SVG/1.1/DTD/svg11.dtd">
<svg xmlns:xlink="http://www.w3.org/1999/xlink" width="1276.458pt" height="758.36pt" viewBox="0 0 1276.458 758.36" xmlns="http://www.w3.org/2000/svg" version="1.1">
 <metadata>
  <rdf:RDF xmlns:dc="http://purl.org/dc/elements/1.1/" xmlns:cc="http://creativecommons.org/ns#" xmlns:rdf="http://www.w3.org/1999/02/22-rdf-syntax-ns#">
   <cc:Work>
    <dc:type rdf:resource="http://purl.org/dc/dcmitype/StillImage"/>
    <dc:date>2026-03-01T21:08:21.940799</dc:date>
    <dc:format>image/svg+xml</dc:format>
    <dc:creator>
     <cc:Agent>
      <dc:title>Matplotlib v3.8.4, https://matplotlib.org/</dc:title>
     </cc:Agent>
    </dc:creator>
   </cc:Work>
  </rdf:RDF>
 </metadata>
 <defs>
  <style type="text/css">*{stroke-linejoin: round; stroke-linecap: butt}</style>
 </defs>
 <g id="figure_1">
  <g id="patch_1">
   <path d="M 0 758.36 
L 1276.458 758.36 
L 1276.458 0 
L 0 0 
z
" style="fill: #ffffff"/>
  </g>
  <g id="axes_1">
   <g id="line2d_1">
    <path d="M 64.509 224.08 
L 64.509 247.84 
M 73.509 247.84 
L 55.509 247.84 
M 73.509 254.32 
L 55.509 254.32 
M 64.509 254.32 
L 64.509 278.08 
" clip-path="url(#pb0d0cdd463)" style="fill: none; stroke: #000000; stroke-width: 2; stroke-linecap: round"/>
   </g>
   <g id="line2d_2">
    <path d="M 64.509 278.08 
L 64.509 292.48 
L 55.509 292.48 
L 73.509 292.48 
M 58.209 296.8 
L 70.809 296.8 
M 62.709 301.12 
L 66.309 301.12 
" clip-path="url(#pb0d0cdd463)" style="fill: none; stroke: #000000; stroke-width: 2; stroke-linecap: round"/>
   </g>
   <g id="line2d_3">
    <path d="M 64.509 224.08 
L 100.509 224.08 
L 136.509 224.08 
" clip-path="url(#pb0d0cdd463)" style="fill: none; stroke: #000000; stroke-width: 2; stroke-linecap: round"/>
   </g>
   <g id="line2d_4">
    <path d="M 154.509 251.08 
L 262.509 251.08 
L 262.509 197.08 
L 154.509 197.08 
L 154.509 251.08 
" clip-path="url(#pb0d0cdd463)" style="fill: none; stroke: #000000; stroke-width: 2; stroke-linecap: round"/>
   </g>
   <g id="line2d_5">
    <path d="M 154.509 224.08 
L 136.509 224.08 
" clip-path="url(#pb0d0cdd463)" style="fill: none; stroke: #000000; stroke-width: 2; stroke-linecap: round"/>
   </g>
   <g id="line2d_6">
    <path d="M 262.509 224.08 
L 280.509 224.08 
" clip-path="url(#pb0d0cdd463)" style="fill: none; stroke: #000000; stroke-width: 2; stroke-linecap: round"/>
   </g>
   <g id="line2d_7">
    <path d="M 208.509 251.08 
L 208.509 269.08 
" clip-path="url(#pb0d0cdd463)" style="fill: none; stroke: #000000; stroke-width: 2; stroke-linecap: round"/>
   </g>
   <g id="line2d_8">
    <path d="M 208.509 269.08 
L 208.509 272.68 
L 217.509 275.68 
L 199.509 281.68 
L 217.509 287.68 
L 199.509 293.68 
L 217.509 299.68 
L 199.509 305.68 
L 208.509 308.68 
L 208.509 312.28 
" clip-path="url(#pb0d0cdd463)" style="fill: none; stroke: #000000; stroke-width: 2; stroke-linecap: round"/>
   </g>
   <g id="line2d_9">
    <path d="M 208.509 312.28 
L 208.509 326.68 
L 199.509 326.68 
L 217.509 326.68 
M 202.209 331 
L 214.809 331 
M 206.709 335.32 
L 210.309 335.32 
" clip-path="url(#pb0d0cdd463)" style="fill: none; stroke: #000000; stroke-width: 2; stroke-linecap: round"/>
   </g>
   <g id="line2d_10">
    <path d="M 208.509 269.08 
L 217.509 269.08 
L 220.509 260.08 
L 226.509 278.08 
L 232.509 260.08 
L 238.509 278.08 
L 244.509 260.08 
L 250.509 278.08 
L 253.509 269.08 
L 262.509 269.08 
" clip-path="url(#pb0d0cdd463)" style="fill: none; stroke: #000000; stroke-width: 2; stroke-linecap: round"/>
   </g>
   <g id="line2d_11">
    <path d="M 262.509 269.08 
L 262.509 255.58 
L 262.509 242.08 
" clip-path="url(#pb0d0cdd463)" style="fill: none; stroke: #000000; stroke-width: 2; stroke-linecap: round"/>
   </g>
   <g id="line2d_12">
    <path d="M 280.509 224.08 
L 316.509 224.08 
L 352.509 224.08 
" clip-path="url(#pb0d0cdd463)" style="fill: none; stroke: #000000; stroke-width: 2; stroke-linecap: round"/>
   </g>
   <g id="line2d_13">
    <path d="M 352.509 224.08 
L 352.509 247.84 
M 361.509 247.84 
L 343.509 247.84 
M 361.509 254.32 
L 343.509 254.32 
M 352.509 254.32 
L 352.509 278.08 
" clip-path="url(#pb0d0cdd463)" style="fill: none; stroke: #000000; stroke-width: 2; stroke-linecap: round"/>
   </g>
   <g id="line2d_14">
    <path d="M 352.509 278.08 
L 352.509 292.48 
L 343.509 292.48 
L 361.509 292.48 
M 346.209 296.8 
L 358.809 296.8 
M 350.709 301.12 
L 354.309 301.12 
" clip-path="url(#pb0d0cdd463)" style="fill: none; stroke: #000000; stroke-width: 2; stroke-linecap: round"/>
   </g>
   <g id="line2d_15">
    <path d="M 352.509 224.08 
L 406.509 224.08 
L 460.509 224.08 
" clip-path="url(#pb0d0cdd463)" style="fill: none; stroke: #000000; stroke-width: 2; stroke-linecap: round"/>
   </g>
   <g id="line2d_16">
    <path d="M 478.509 251.08 
L 586.509 251.08 
L 586.509 197.08 
L 478.509 197.08 
L 478.509 251.08 
" clip-path="url(#pb0d0cdd463)" style="fill: none; stroke: #000000; stroke-width: 2; stroke-linecap: round"/>
   </g>
   <g id="line2d_17">
    <path d="M 478.509 224.08 
L 460.509 224.08 
" clip-path="url(#pb0d0cdd463)" style="fill: none; stroke: #000000; stroke-width: 2; stroke-linecap: round"/>
   </g>
   <g id="line2d_18">
    <path d="M 586.509 224.08 
L 604.509 224.08 
" clip-path="url(#pb0d0cdd463)" style="fill: none; stroke: #000000; stroke-width: 2; stroke-linecap: round"/>
   </g>
   <g id="line2d_19">
    <path d="M 532.509 251.08 
L 532.509 269.08 
" clip-path="url(#pb0d0cdd463)" style="fill: none; stroke: #000000; stroke-width: 2; stroke-linecap: round"/>
   </g>
   <g id="line2d_20">
    <path d="M 532.509 269.08 
L 532.509 283.48 
L 523.509 283.48 
L 541.509 283.48 
M 526.209 287.8 
L 538.809 287.8 
M 530.709 292.12 
L 534.309 292.12 
" clip-path="url(#pb0d0cdd463)" style="fill: none; stroke: #000000; stroke-width: 2; stroke-linecap: round"/>
   </g>
   <g id="line2d_21">
    <path d="M 604.509 224.08 
L 631.509 224.08 
L 658.509 224.08 
" clip-path="url(#pb0d0cdd463)" style="fill: none; stroke: #000000; stroke-width: 2; stroke-linecap: round"/>
   </g>
   <g id="line2d_22">
    <path d="M 658.509 224.08 
L 658.509 247.84 
M 667.509 247.84 
L 649.509 247.84 
M 667.509 254.32 
L 649.509 254.32 
M 658.509 254.32 
L 658.509 278.08 
" clip-path="url(#pb0d0cdd463)" style="fill: none; stroke: #000000; stroke-width: 2; stroke-linecap: round"/>
   </g>
   <g id="line2d_23">
    <path d="M 658.509 278.08 
L 658.509 292.48 
L 649.509 292.48 
L 667.509 292.48 
M 652.209 296.8 
L 664.809 296.8 
M 656.709 301.12 
L 660.309 301.12 
" clip-path="url(#pb0d0cdd463)" style="fill: none; stroke: #000000; stroke-width: 2; stroke-linecap: round"/>
   </g>
   <g id="line2d_24">
    <path d="M 244.509 350.08 
L 244.509 530.08 
L 532.509 530.08 
L 532.509 350.08 
L 244.509 350.08 
" clip-path="url(#pb0d0cdd463)" style="fill: none; stroke: #000000; stroke-width: 2; stroke-linecap: round"/>
   </g>
   <g id="line2d_25">
    <path d="M 287.709 350.08 
L 287.709 324.88 
" clip-path="url(#pb0d0cdd463)" style="fill: none; stroke: #000000; stroke-width: 2; stroke-linecap: round"/>
   </g>
   <g id="line2d_26">
    <path d="M 316.509 350.08 
L 316.509 324.88 
" clip-path="url(#pb0d0cdd463)" style="fill: none; stroke: #000000; stroke-width: 2; stroke-linecap: round"/>
   </g>
   <g id="line2d_27">
    <path d="M 345.309 350.08 
L 345.309 324.88 
" clip-path="url(#pb0d0cdd463)" style="fill: none; stroke: #000000; stroke-width: 2; stroke-linecap: round"/>
   </g>
   <g id="line2d_28">
    <path d="M 374.109 350.08 
L 374.109 324.88 
" clip-path="url(#pb0d0cdd463)" style="fill: none; stroke: #000000; stroke-width: 2; stroke-linecap: round"/>
   </g>
   <g id="line2d_29">
    <path d="M 402.909 350.08 
L 402.909 324.88 
" clip-path="url(#pb0d0cdd463)" style="fill: none; stroke: #000000; stroke-width: 2; stroke-linecap: round"/>
   </g>
   <g id="line2d_30">
    <path d="M 431.709 350.08 
L 431.709 324.88 
" clip-path="url(#pb0d0cdd463)" style="fill: none; stroke: #000000; stroke-width: 2; stroke-linecap: round"/>
   </g>
   <g id="line2d_31">
    <path d="M 460.509 350.08 
L 460.509 324.88 
" clip-path="url(#pb0d0cdd463)" style="fill: none; stroke: #000000; stroke-width: 2; stroke-linecap: round"/>
   </g>
   <g id="line2d_32">
    <path d="M 489.309 350.08 
L 489.309 324.88 
" clip-path="url(#pb0d0cdd463)" style="fill: none; stroke: #000000; stroke-width: 2; stroke-linecap: round"/>
   </g>
   <g id="line2d_33">
    <path d="M 316.509 530.08 
L 316.509 555.28 
" clip-path="url(#pb0d0cdd463)" style="fill: none; stroke: #000000; stroke-width: 2; stroke-linecap: round"/>
   </g>
   <g id="line2d_34">
    <path d="M 345.309 530.08 
L 345.309 555.28 
" clip-path="url(#pb0d0cdd463)" style="fill: none; stroke: #000000; stroke-width: 2; stroke-linecap: round"/>
   </g>
   <g id="line2d_35">
    <path d="M 374.109 530.08 
L 374.109 555.28 
" clip-path="url(#pb0d0cdd463)" style="fill: none; stroke: #000000; stroke-width: 2; stroke-linecap: round"/>
   </g>
   <g id="line2d_36">
    <path d="M 402.909 530.08 
L 402.909 555.28 
" clip-path="url(#pb0d0cdd463)" style="fill: none; stroke: #000000; stroke-width: 2; stroke-linecap: round"/>
   </g>
   <g id="line2d_37">
    <path d="M 431.709 530.08 
L 431.709 555.28 
" clip-path="url(#pb0d0cdd463)" style="fill: none; stroke: #000000; stroke-width: 2; stroke-linecap: round"/>
   </g>
   <g id="line2d_38">
    <path d="M 460.509 530.08 
L 460.509 555.28 
" clip-path="url(#pb0d0cdd463)" style="fill: none; stroke: #000000; stroke-width: 2; stroke-linecap: round"/>
   </g>
   <g id="line2d_39">
    <path d="M 532.509 440.08 
L 550.509 440.08 
" clip-path="url(#pb0d0cdd463)" style="fill: none; stroke: #000000; stroke-width: 2; stroke-linecap: round"/>
   </g>
   <g id="line2d_40">
    <path d="M 244.509 440.08 
L 226.509 440.08 
" clip-path="url(#pb0d0cdd463)" style="fill: none; stroke: #000000; stroke-width: 2; stroke-linecap: round"/>
   </g>
   <g id="line2d_41">
    <path d="M 550.509 440.08 
L 550.509 425.68 
" clip-path="url(#pb0d0cdd463)" style="fill: none; stroke: #000000; stroke-width: 2; stroke-linecap: round"/>
   </g>
   <g id="line2d_42">
    <path d="M 550.509 425.68 
L 543.759 425.68 
" clip-path="url(#pb0d0cdd463)" style="fill: none; stroke: #000000; stroke-width: 2; stroke-linecap: round"/>
   </g>
   <g id="line2d_43">
    <path d="M 550.509 425.68 
L 557.259 425.68 
" clip-path="url(#pb0d0cdd463)" style="fill: none; stroke: #000000; stroke-width: 2; stroke-linecap: round"/>
   </g>
   <g id="line2d_44">
    <path d="M 226.509 440.08 
L 226.509 454.48 
L 217.509 454.48 
L 235.509 454.48 
M 220.209 458.8 
L 232.809 458.8 
M 224.709 463.12 
L 228.309 463.12 
" clip-path="url(#pb0d0cdd463)" style="fill: none; stroke: #000000; stroke-width: 2; stroke-linecap: round"/>
   </g>
   <g id="line2d_45">
    <path d="M 694.509 350.08 
L 694.509 530.08 
L 1018.509 530.08 
L 1018.509 350.08 
L 694.509 350.08 
" clip-path="url(#pb0d0cdd463)" style="fill: none; stroke: #000000; stroke-width: 2; stroke-linecap: round"/>
   </g>
   <g id="line2d_46">
    <path d="M 768.309 350.08 
L 768.309 324.88 
" clip-path="url(#pb0d0cdd463)" style="fill: none; stroke: #000000; stroke-width: 2; stroke-linecap: round"/>
   </g>
   <g id="line2d_47">
    <path d="M 793.509 350.08 
L 793.509 324.88 
" clip-path="url(#pb0d0cdd463)" style="fill: none; stroke: #000000; stroke-width: 2; stroke-linecap: round"/>
   </g>
   <g id="line2d_48">
    <path d="M 818.709 350.08 
L 818.709 324.88 
" clip-path="url(#pb0d0cdd463)" style="fill: none; stroke: #000000; stroke-width: 2; stroke-linecap: round"/>
   </g>
   <g id="line2d_49">
    <path d="M 843.909 350.08 
L 843.909 324.88 
" clip-path="url(#pb0d0cdd463)" style="fill: none; stroke: #000000; stroke-width: 2; stroke-linecap: round"/>
   </g>
   <g id="line2d_50">
    <path d="M 869.109 350.08 
L 869.109 324.88 
" clip-path="url(#pb0d0cdd463)" style="fill: none; stroke: #000000; stroke-width: 2; stroke-linecap: round"/>
   </g>
   <g id="line2d_51">
    <path d="M 894.309 350.08 
L 894.309 324.88 
" clip-path="url(#pb0d0cdd463)" style="fill: none; stroke: #000000; stroke-width: 2; stroke-linecap: round"/>
   </g>
   <g id="line2d_52">
    <path d="M 919.509 350.08 
L 919.509 324.88 
" clip-path="url(#pb0d0cdd463)" style="fill: none; stroke: #000000; stroke-width: 2; stroke-linecap: round"/>
   </g>
   <g id="line2d_53">
    <path d="M 944.709 350.08 
L 944.709 324.88 
" clip-path="url(#pb0d0cdd463)" style="fill: none; stroke: #000000; stroke-width: 2; stroke-linecap: round"/>
   </g>
   <g id="line2d_54">
    <path d="M 768.309 530.08 
L 768.309 555.28 
" clip-path="url(#pb0d0cdd463)" style="fill: none; stroke: #000000; stroke-width: 2; stroke-linecap: round"/>
   </g>
   <g id="line2d_55">
    <path d="M 793.509 530.08 
L 793.509 555.28 
" clip-path="url(#pb0d0cdd463)" style="fill: none; stroke: #000000; stroke-width: 2; stroke-linecap: round"/>
   </g>
   <g id="line2d_56">
    <path d="M 818.709 530.08 
L 818.709 555.28 
" clip-path="url(#pb0d0cdd463)" style="fill: none; stroke: #000000; stroke-width: 2; stroke-linecap: round"/>
   </g>
   <g id="line2d_57">
    <path d="M 843.909 530.08 
L 843.909 555.28 
" clip-path="url(#pb0d0cdd463)" style="fill: none; stroke: #000000; stroke-width: 2; stroke-linecap: round"/>
   </g>
   <g id="line2d_58">
    <path d="M 869.109 530.08 
L 869.109 555.28 
" clip-path="url(#pb0d0cdd463)" style="fill: none; stroke: #000000; stroke-width: 2; stroke-linecap: round"/>
   </g>
   <g id="line2d_59">
    <path d="M 894.309 530.08 
L 894.309 555.28 
" clip-path="url(#pb0d0cdd463)" style="fill: none; stroke: #000000; stroke-width: 2; stroke-linecap: round"/>
   </g>
   <g id="line2d_60">
    <path d="M 919.509 530.08 
L 919.509 555.28 
" clip-path="url(#pb0d0cdd463)" style="fill: none; stroke: #000000; stroke-width: 2; stroke-linecap: round"/>
   </g>
   <g id="line2d_61">
    <path d="M 944.709 530.08 
L 944.709 555.28 
" clip-path="url(#pb0d0cdd463)" style="fill: none; stroke: #000000; stroke-width: 2; stroke-linecap: round"/>
   </g>
   <g id="line2d_62">
    <path d="M 1018.509 418.48 
L 1036.509 418.48 
" clip-path="url(#pb0d0cdd463)" style="fill: none; stroke: #000000; stroke-width: 2; stroke-linecap: round"/>
   </g>
   <g id="line2d_63">
    <path d="M 1018.509 461.68 
L 1036.509 461.68 
" clip-path="url(#pb0d0cdd463)" style="fill: none; stroke: #000000; stroke-width: 2; stroke-linecap: round"/>
   </g>
   <g id="line2d_64">
    <path d="M 694.509 418.48 
L 676.509 418.48 
" clip-path="url(#pb0d0cdd463)" style="fill: none; stroke: #000000; stroke-width: 2; stroke-linecap: round"/>
   </g>
   <g id="line2d_65">
    <path d="M 694.509 461.68 
L 676.509 461.68 
" clip-path="url(#pb0d0cdd463)" style="fill: none; stroke: #000000; stroke-width: 2; stroke-linecap: round"/>
   </g>
   <g id="line2d_66">
    <path d="M 1036.509 418.48 
L 1036.509 404.08 
" clip-path="url(#pb0d0cdd463)" style="fill: none; stroke: #000000; stroke-width: 2; stroke-linecap: round"/>
   </g>
   <g id="line2d_67">
    <path d="M 1036.509 404.08 
L 1029.759 404.08 
" clip-path="url(#pb0d0cdd463)" style="fill: none; stroke: #000000; stroke-width: 2; stroke-linecap: round"/>
   </g>
   <g id="line2d_68">
    <path d="M 1036.509 404.08 
L 1043.259 404.08 
" clip-path="url(#pb0d0cdd463)" style="fill: none; stroke: #000000; stroke-width: 2; stroke-linecap: round"/>
   </g>
   <g id="line2d_69">
    <path d="M 676.509 418.48 
L 676.509 432.88 
L 667.509 432.88 
L 685.509 432.88 
M 670.209 437.2 
L 682.809 437.2 
M 674.709 441.52 
L 678.309 441.52 
" clip-path="url(#pb0d0cdd463)" style="fill: none; stroke: #000000; stroke-width: 2; stroke-linecap: round"/>
   </g>
   <g id="line2d_70">
    <path d="M 345.309 324.88 
L 1036.509 324.88 
L 1036.509 461.68 
" clip-path="url(#pb0d0cdd463)" style="fill: none; stroke: #0000ff; stroke-width: 2; stroke-linecap: round"/>
   </g>
   <g id="line2d_71">
    <path d="M 374.109 324.88 
L 676.509 324.88 
L 676.509 461.68 
" clip-path="url(#pb0d0cdd463)" style="fill: none; stroke: #0000ff; stroke-width: 2; stroke-linecap: round"/>
   </g>
   <g id="line2d_72">
    <path d="M 1036.509 461.68 
L 1036.509 452.68 
L 1027.509 449.68 
L 1045.509 443.68 
L 1027.509 437.68 
L 1045.509 431.68 
L 1027.509 425.68 
L 1045.509 419.68 
L 1036.509 416.68 
L 1036.509 407.68 
" clip-path="url(#pb0d0cdd463)" style="fill: none; stroke: #000000; stroke-width: 2; stroke-linecap: round"/>
   </g>
   <g id="line2d_73">
    <path d="M 1036.509 407.68 
L 1036.509 393.28 
" clip-path="url(#pb0d0cdd463)" style="fill: none; stroke: #000000; stroke-width: 2; stroke-linecap: round"/>
   </g>
   <g id="line2d_74">
    <path d="M 1036.509 393.28 
L 1029.759 393.28 
" clip-path="url(#pb0d0cdd463)" style="fill: none; stroke: #000000; stroke-width: 2; stroke-linecap: round"/>
   </g>
   <g id="line2d_75">
    <path d="M 1036.509 393.28 
L 1043.259 393.28 
" clip-path="url(#pb0d0cdd463)" style="fill: none; stroke: #000000; stroke-width: 2; stroke-linecap: round"/>
   </g>
   <g id="line2d_76">
    <path d="M 676.509 461.68 
L 676.509 470.68 
L 685.509 473.68 
L 667.509 479.68 
L 685.509 485.68 
L 667.509 491.68 
L 685.509 497.68 
L 667.509 503.68 
L 676.509 506.68 
L 676.509 515.68 
" clip-path="url(#pb0d0cdd463)" style="fill: none; stroke: #000000; stroke-width: 2; stroke-linecap: round"/>
   </g>
   <g id="line2d_77">
    <path d="M 676.509 515.68 
L 676.509 530.08 
L 667.509 530.08 
L 685.509 530.08 
M 670.209 534.4 
L 682.809 534.4 
M 674.709 538.72 
L 678.309 538.72 
" clip-path="url(#pb0d0cdd463)" style="fill: none; stroke: #000000; stroke-width: 2; stroke-linecap: round"/>
   </g>
   <g id="line2d_78">
    <path d="M 829.509 647.08 
L 829.509 737.08 
L 883.509 737.08 
L 883.509 647.08 
L 829.509 647.08 
" clip-path="url(#pb0d0cdd463)" style="fill: none; stroke: #000000; stroke-width: 2; stroke-linecap: round"/>
   </g>
   <g id="line2d_79">
    <path d="M 842.109 647.08 
L 842.109 629.08 
" clip-path="url(#pb0d0cdd463)" style="fill: none; stroke: #000000; stroke-width: 2; stroke-linecap: round"/>
   </g>
   <g id="line2d_80">
    <path d="M 856.509 647.08 
L 856.509 629.08 
" clip-path="url(#pb0d0cdd463)" style="fill: none; stroke: #000000; stroke-width: 2; stroke-linecap: round"/>
   </g>
   <g id="line2d_81">
    <path d="M 870.909 647.08 
L 870.909 629.08 
" clip-path="url(#pb0d0cdd463)" style="fill: none; stroke: #000000; stroke-width: 2; stroke-linecap: round"/>
   </g>
   <g id="line2d_82">
    <path d="M 842.109 629.08 
L 824.109 629.08 
L 821.109 638.08 
L 815.109 620.08 
L 809.109 638.08 
L 803.109 620.08 
L 797.109 638.08 
L 791.109 620.08 
L 788.109 629.08 
L 770.109 629.08 
" clip-path="url(#pb0d0cdd463)" style="fill: none; stroke: #000000; stroke-width: 2; stroke-linecap: round"/>
   </g>
   <g id="line2d_83">
    <path d="M 770.109 629.08 
L 770.109 614.68 
" clip-path="url(#pb0d0cdd463)" style="fill: none; stroke: #000000; stroke-width: 2; stroke-linecap: round"/>
   </g>
   <g id="line2d_84">
    <path d="M 770.109 614.68 
L 763.359 614.68 
" clip-path="url(#pb0d0cdd463)" style="fill: none; stroke: #000000; stroke-width: 2; stroke-linecap: round"/>
   </g>
   <g id="line2d_85">
    <path d="M 770.109 614.68 
L 776.859 614.68 
" clip-path="url(#pb0d0cdd463)" style="fill: none; stroke: #000000; stroke-width: 2; stroke-linecap: round"/>
   </g>
   <g id="line2d_86">
    <path d="M 856.509 629.08 
L 838.509 629.08 
L 835.509 638.08 
L 829.509 620.08 
L 823.509 638.08 
L 817.509 620.08 
L 811.509 638.08 
L 805.509 620.08 
L 802.509 629.08 
L 784.509 629.08 
" clip-path="url(#pb0d0cdd463)" style="fill: none; stroke: #000000; stroke-width: 2; stroke-linecap: round"/>
   </g>
   <g id="line2d_87">
    <path d="M 784.509 629.08 
L 784.509 614.68 
" clip-path="url(#pb0d0cdd463)" style="fill: none; stroke: #000000; stroke-width: 2; stroke-linecap: round"/>
   </g>
   <g id="line2d_88">
    <path d="M 784.509 614.68 
L 777.759 614.68 
" clip-path="url(#pb0d0cdd463)" style="fill: none; stroke: #000000; stroke-width: 2; stroke-linecap: round"/>
   </g>
   <g id="line2d_89">
    <path d="M 784.509 614.68 
L 791.259 614.68 
" clip-path="url(#pb0d0cdd463)" style="fill: none; stroke: #000000; stroke-width: 2; stroke-linecap: round"/>
   </g>
   <g id="line2d_90">
    <path d="M 870.909 629.08 
L 852.909 629.08 
L 849.909 638.08 
L 843.909 620.08 
L 837.909 638.08 
L 831.909 620.08 
L 825.909 638.08 
L 819.909 620.08 
L 816.909 629.08 
L 798.909 629.08 
" clip-path="url(#pb0d0cdd463)" style="fill: none; stroke: #000000; stroke-width: 2; stroke-linecap: round"/>
   </g>
   <g id="line2d_91">
    <path d="M 798.909 629.08 
L 798.909 614.68 
" clip-path="url(#pb0d0cdd463)" style="fill: none; stroke: #000000; stroke-width: 2; stroke-linecap: round"/>
   </g>
   <g id="line2d_92">
    <path d="M 798.909 614.68 
L 792.159 614.68 
" clip-path="url(#pb0d0cdd463)" style="fill: none; stroke: #000000; stroke-width: 2; stroke-linecap: round"/>
   </g>
   <g id="line2d_93">
    <path d="M 798.909 614.68 
L 805.659 614.68 
" clip-path="url(#pb0d0cdd463)" style="fill: none; stroke: #000000; stroke-width: 2; stroke-linecap: round"/>
   </g>
   <g id="line2d_94">
    <path d="M 442.509 80.08 
L 334.509 80.08 
L 334.509 152.08 
L 442.509 152.08 
L 442.509 80.08 
" clip-path="url(#pb0d0cdd463)" style="fill: none; stroke: #000000; stroke-width: 2; stroke-linecap: round"/>
   </g>
   <g id="line2d_95">
    <path d="M 426.309 80.08 
L 426.309 62.08 
" clip-path="url(#pb0d0cdd463)" style="fill: none; stroke: #000000; stroke-width: 2; stroke-linecap: round"/>
   </g>
   <g id="line2d_96">
    <path d="M 401.109 80.08 
L 401.109 62.08 
" clip-path="url(#pb0d0cdd463)" style="fill: none; stroke: #000000; stroke-width: 2; stroke-linecap: round"/>
   </g>
   <g id="line2d_97">
    <path d="M 375.909 80.08 
L 375.909 62.08 
" clip-path="url(#pb0d0cdd463)" style="fill: none; stroke: #000000; stroke-width: 2; stroke-linecap: round"/>
   </g>
   <g id="line2d_98">
    <path d="M 350.709 80.08 
L 350.709 62.08 
" clip-path="url(#pb0d0cdd463)" style="fill: none; stroke: #000000; stroke-width: 2; stroke-linecap: round"/>
   </g>
   <g id="line2d_99">
    <path d="M 426.309 62.08 
L 426.309 76.48 
L 417.309 76.48 
L 435.309 76.48 
M 420.009 80.8 
L 432.609 80.8 
M 424.509 85.12 
L 428.109 85.12 
" clip-path="url(#pb0d0cdd463)" style="fill: none; stroke: #000000; stroke-width: 2; stroke-linecap: round"/>
   </g>
   <g id="line2d_100">
    <path d="M 401.109 62.08 
L 401.109 47.68 
" clip-path="url(#pb0d0cdd463)" style="fill: none; stroke: #000000; stroke-width: 2; stroke-linecap: round"/>
   </g>
   <g id="line2d_101">
    <path d="M 401.109 47.68 
L 394.359 47.68 
" clip-path="url(#pb0d0cdd463)" style="fill: none; stroke: #000000; stroke-width: 2; stroke-linecap: round"/>
   </g>
   <g id="line2d_102">
    <path d="M 401.109 47.68 
L 407.859 47.68 
" clip-path="url(#pb0d0cdd463)" style="fill: none; stroke: #000000; stroke-width: 2; stroke-linecap: round"/>
   </g>
   <g id="line2d_103">
    <path d="M 1180.509 305.08 
L 1108.509 305.08 
L 1108.509 359.08 
L 1180.509 359.08 
L 1180.509 305.08 
" clip-path="url(#pb0d0cdd463)" style="fill: none; stroke: #000000; stroke-width: 2; stroke-linecap: round"/>
   </g>
   <g id="line2d_104">
    <path d="M 1180.509 317.68 
L 1198.509 317.68 
" clip-path="url(#pb0d0cdd463)" style="fill: none; stroke: #000000; stroke-width: 2; stroke-linecap: round"/>
   </g>
   <g id="line2d_105">
    <path d="M 1180.509 332.08 
L 1198.509 332.08 
" clip-path="url(#pb0d0cdd463)" style="fill: none; stroke: #000000; stroke-width: 2; stroke-linecap: round"/>
   </g>
   <g id="line2d_106">
    <path d="M 1180.509 346.48 
L 1198.509 346.48 
" clip-path="url(#pb0d0cdd463)" style="fill: none; stroke: #000000; stroke-width: 2; stroke-linecap: round"/>
   </g>
   <g id="line2d_107">
    <path d="M 1180.509 395.08 
L 1108.509 395.08 
L 1108.509 449.08 
L 1180.509 449.08 
L 1180.509 395.08 
" clip-path="url(#pb0d0cdd463)" style="fill: none; stroke: #000000; stroke-width: 2; stroke-linecap: round"/>
   </g>
   <g id="line2d_108">
    <path d="M 1180.509 407.68 
L 1198.509 407.68 
" clip-path="url(#pb0d0cdd463)" style="fill: none; stroke: #000000; stroke-width: 2; stroke-linecap: round"/>
   </g>
   <g id="line2d_109">
    <path d="M 1180.509 422.08 
L 1198.509 422.08 
" clip-path="url(#pb0d0cdd463)" style="fill: none; stroke: #000000; stroke-width: 2; stroke-linecap: round"/>
   </g>
   <g id="line2d_110">
    <path d="M 1180.509 436.48 
L 1198.509 436.48 
" clip-path="url(#pb0d0cdd463)" style="fill: none; stroke: #000000; stroke-width: 2; stroke-linecap: round"/>
   </g>
   <g id="line2d_111">
    <path d="M 1180.509 485.08 
L 1108.509 485.08 
L 1108.509 539.08 
L 1180.509 539.08 
L 1180.509 485.08 
" clip-path="url(#pb0d0cdd463)" style="fill: none; stroke: #000000; stroke-width: 2; stroke-linecap: round"/>
   </g>
   <g id="line2d_112">
    <path d="M 1180.509 497.68 
L 1198.509 497.68 
" clip-path="url(#pb0d0cdd463)" style="fill: none; stroke: #000000; stroke-width: 2; stroke-linecap: round"/>
   </g>
   <g id="line2d_113">
    <path d="M 1180.509 512.08 
L 1198.509 512.08 
" clip-path="url(#pb0d0cdd463)" style="fill: none; stroke: #000000; stroke-width: 2; stroke-linecap: round"/>
   </g>
   <g id="line2d_114">
    <path d="M 1180.509 526.48 
L 1198.509 526.48 
" clip-path="url(#pb0d0cdd463)" style="fill: none; stroke: #000000; stroke-width: 2; stroke-linecap: round"/>
   </g>
   <g id="line2d_115">
    <path d="M 768.309 555.28 
L 1198.509 317.68 
" clip-path="url(#pb0d0cdd463)" style="fill: none; stroke: #008000; stroke-width: 2; stroke-linecap: round"/>
   </g>
   <g id="line2d_116">
    <path d="M 818.709 555.28 
L 1198.509 407.68 
" clip-path="url(#pb0d0cdd463)" style="fill: none; stroke: #008000; stroke-width: 2; stroke-linecap: round"/>
   </g>
   <g id="line2d_117">
    <path d="M 869.109 555.28 
L 1198.509 497.68 
" clip-path="url(#pb0d0cdd463)" style="fill: none; stroke: #008000; stroke-width: 2; stroke-linecap: round"/>
   </g>
   <g id="line2d_118">
    <path d="M 64.509 440.08 
L 64.509 458.08 
L 64.509 476.08 
" clip-path="url(#pb0d0cdd463)" style="fill: none; stroke: #000000; stroke-width: 2; stroke-linecap: round"/>
   </g>
   <g id="text_1">
    <!-- VIN 12V -->
    <g transform="translate(2.900406 223.515313) scale(0.11 -0.11)">
     <defs>
      <path id="DejaVuSans-56" d="M 1831 0 
L 50 4666 
L 709 4666 
L 2188 738 
L 3669 4666 
L 4325 4666 
L 2547 0 
L 1831 0 
z
" transform="scale(0.015625)"/>
      <path id="DejaVuSans-49" d="M 628 4666 
L 1259 4666 
L 1259 0 
L 628 0 
L 628 4666 
z
" transform="scale(0.015625)"/>
      <path id="DejaVuSans-4e" d="M 628 4666 
L 1478 4666 
L 3547 763 
L 3547 4666 
L 4159 4666 
L 4159 0 
L 3309 0 
L 1241 3903 
L 1241 0 
L 628 0 
L 628 4666 
z
" transform="scale(0.015625)"/>
      <path id="DejaVuSans-20" transform="scale(0.015625)"/>
      <path id="DejaVuSans-31" d="M 794 531 
L 1825 531 
L 1825 4091 
L 703 3866 
L 703 4441 
L 1819 4666 
L 2450 4666 
L 2450 531 
L 3481 531 
L 3481 0 
L 794 0 
L 794 531 
z
" transform="scale(0.015625)"/>
      <path id="DejaVuSans-32" d="M 1228 531 
L 3431 531 
L 3431 0 
L 469 0 
L 469 531 
Q 828 903 1448 1529 
Q 2069 2156 2228 2338 
Q 2531 2678 2651 2914 
Q 2772 3150 2772 3378 
Q 2772 3750 2511 3984 
Q 2250 4219 1831 4219 
Q 1534 4219 1204 4116 
Q 875 4013 500 3803 
L 500 4441 
Q 881 4594 1212 4672 
Q 1544 4750 1819 4750 
Q 2544 4750 2975 4387 
Q 3406 4025 3406 3419 
Q 3406 3131 3298 2873 
Q 3191 2616 2906 2266 
Q 2828 2175 2409 1742 
Q 1991 1309 1228 531 
z
" transform="scale(0.015625)"/>
     </defs>
     <use xlink:href="#DejaVuSans-56"/>
     <use xlink:href="#DejaVuSans-49" x="68.408203"/>
     <use xlink:href="#DejaVuSans-4e" x="97.900391"/>
     <use xlink:href="#DejaVuSans-20" x="172.705078"/>
     <use xlink:href="#DejaVuSans-31" x="204.492188"/>
     <use xlink:href="#DejaVuSans-32" x="268.115234"/>
     <use xlink:href="#DejaVuSans-56" x="331.738281"/>
    </g>
   </g>
   <g id="text_2">
    <!-- C3 -->
    <g transform="translate(58.503609 209.897969) scale(0.09 -0.09)">
     <defs>
      <path id="DejaVuSans-43" d="M 4122 4306 
L 4122 3641 
Q 3803 3938 3442 4084 
Q 3081 4231 2675 4231 
Q 1875 4231 1450 3742 
Q 1025 3253 1025 2328 
Q 1025 1406 1450 917 
Q 1875 428 2675 428 
Q 3081 428 3442 575 
Q 3803 722 4122 1019 
L 4122 359 
Q 3791 134 3420 21 
Q 3050 -91 2638 -91 
Q 1578 -91 968 557 
Q 359 1206 359 2328 
Q 359 3453 968 4101 
Q 1578 4750 2638 4750 
Q 3056 4750 3426 4639 
Q 3797 4528 4122 4306 
z
" transform="scale(0.015625)"/>
      <path id="DejaVuSans-33" d="M 2597 2516 
Q 3050 2419 3304 2112 
Q 3559 1806 3559 1356 
Q 3559 666 3084 287 
Q 2609 -91 1734 -91 
Q 1441 -91 1130 -33 
Q 819 25 488 141 
L 488 750 
Q 750 597 1062 519 
Q 1375 441 1716 441 
Q 2309 441 2620 675 
Q 2931 909 2931 1356 
Q 2931 1769 2642 2001 
Q 2353 2234 1838 2234 
L 1294 2234 
L 1294 2753 
L 1863 2753 
Q 2328 2753 2575 2939 
Q 2822 3125 2822 3475 
Q 2822 3834 2567 4026 
Q 2313 4219 1838 4219 
Q 1578 4219 1281 4162 
Q 984 4106 628 3988 
L 628 4550 
Q 988 4650 1302 4700 
Q 1616 4750 1894 4750 
Q 2613 4750 3031 4423 
Q 3450 4097 3450 3541 
Q 3450 3153 3228 2886 
Q 3006 2619 2597 2516 
z
" transform="scale(0.015625)"/>
     </defs>
     <use xlink:href="#DejaVuSans-43"/>
     <use xlink:href="#DejaVuSans-33" x="69.824219"/>
    </g>
    <!-- 100nF -->
    <g transform="translate(50.479547 218.608281) scale(0.09 -0.09)">
     <defs>
      <path id="DejaVuSans-30" d="M 2034 4250 
Q 1547 4250 1301 3770 
Q 1056 3291 1056 2328 
Q 1056 1369 1301 889 
Q 1547 409 2034 409 
Q 2525 409 2770 889 
Q 3016 1369 3016 2328 
Q 3016 3291 2770 3770 
Q 2525 4250 2034 4250 
z
M 2034 4750 
Q 2819 4750 3233 4129 
Q 3647 3509 3647 2328 
Q 3647 1150 3233 529 
Q 2819 -91 2034 -91 
Q 1250 -91 836 529 
Q 422 1150 422 2328 
Q 422 3509 836 4129 
Q 1250 4750 2034 4750 
z
" transform="scale(0.015625)"/>
      <path id="DejaVuSans-6e" d="M 3513 2113 
L 3513 0 
L 2938 0 
L 2938 2094 
Q 2938 2591 2744 2837 
Q 2550 3084 2163 3084 
Q 1697 3084 1428 2787 
Q 1159 2491 1159 1978 
L 1159 0 
L 581 0 
L 581 3500 
L 1159 3500 
L 1159 2956 
Q 1366 3272 1645 3428 
Q 1925 3584 2291 3584 
Q 2894 3584 3203 3211 
Q 3513 2838 3513 2113 
z
" transform="scale(0.015625)"/>
      <path id="DejaVuSans-46" d="M 628 4666 
L 3309 4666 
L 3309 4134 
L 1259 4134 
L 1259 2759 
L 3109 2759 
L 3109 2228 
L 1259 2228 
L 1259 0 
L 628 0 
L 628 4666 
z
" transform="scale(0.015625)"/>
     </defs>
     <use xlink:href="#DejaVuSans-31"/>
     <use xlink:href="#DejaVuSans-30" x="63.623047"/>
     <use xlink:href="#DejaVuSans-30" x="127.246094"/>
     <use xlink:href="#DejaVuSans-6e" x="190.869141"/>
     <use xlink:href="#DejaVuSans-46" x="254.248047"/>
    </g>
   </g>
   <g id="text_3">
    <!-- IN -->
    <g transform="translate(159.909 227.943125) scale(0.14 -0.14)">
     <use xlink:href="#DejaVuSans-49"/>
     <use xlink:href="#DejaVuSans-4e" x="29.492188"/>
    </g>
   </g>
   <g id="text_4">
    <!-- OUT -->
    <g transform="translate(227.291187 227.943125) scale(0.14 -0.14)">
     <defs>
      <path id="DejaVuSans-4f" d="M 2522 4238 
Q 1834 4238 1429 3725 
Q 1025 3213 1025 2328 
Q 1025 1447 1429 934 
Q 1834 422 2522 422 
Q 3209 422 3611 934 
Q 4013 1447 4013 2328 
Q 4013 3213 3611 3725 
Q 3209 4238 2522 4238 
z
M 2522 4750 
Q 3503 4750 4090 4092 
Q 4678 3434 4678 2328 
Q 4678 1225 4090 567 
Q 3503 -91 2522 -91 
Q 1538 -91 948 565 
Q 359 1222 359 2328 
Q 359 3434 948 4092 
Q 1538 4750 2522 4750 
z
" transform="scale(0.015625)"/>
      <path id="DejaVuSans-55" d="M 556 4666 
L 1191 4666 
L 1191 1831 
Q 1191 1081 1462 751 
Q 1734 422 2344 422 
Q 2950 422 3222 751 
Q 3494 1081 3494 1831 
L 3494 4666 
L 4128 4666 
L 4128 1753 
Q 4128 841 3676 375 
Q 3225 -91 2344 -91 
Q 1459 -91 1007 375 
Q 556 841 556 1753 
L 556 4666 
z
" transform="scale(0.015625)"/>
      <path id="DejaVuSans-54" d="M -19 4666 
L 3928 4666 
L 3928 4134 
L 2272 4134 
L 2272 0 
L 1638 0 
L 1638 4134 
L -19 4134 
L -19 4666 
z
" transform="scale(0.015625)"/>
     </defs>
     <use xlink:href="#DejaVuSans-4f"/>
     <use xlink:href="#DejaVuSans-55" x="78.710938"/>
     <use xlink:href="#DejaVuSans-54" x="151.904297"/>
    </g>
   </g>
   <g id="text_5">
    <!-- ADJ -->
    <g transform="translate(196.265563 242.768438) scale(0.14 -0.14)">
     <defs>
      <path id="DejaVuSans-41" d="M 2188 4044 
L 1331 1722 
L 3047 1722 
L 2188 4044 
z
M 1831 4666 
L 2547 4666 
L 4325 0 
L 3669 0 
L 3244 1197 
L 1141 1197 
L 716 0 
L 50 0 
L 1831 4666 
z
" transform="scale(0.015625)"/>
      <path id="DejaVuSans-44" d="M 1259 4147 
L 1259 519 
L 2022 519 
Q 2988 519 3436 956 
Q 3884 1394 3884 2338 
Q 3884 3275 3436 3711 
Q 2988 4147 2022 4147 
L 1259 4147 
z
M 628 4666 
L 1925 4666 
Q 3281 4666 3915 4102 
Q 4550 3538 4550 2338 
Q 4550 1131 3912 565 
Q 3275 0 1925 0 
L 628 0 
L 628 4666 
z
" transform="scale(0.015625)"/>
      <path id="DejaVuSans-4a" d="M 628 4666 
L 1259 4666 
L 1259 325 
Q 1259 -519 939 -900 
Q 619 -1281 -91 -1281 
L -331 -1281 
L -331 -750 
L -134 -750 
Q 284 -750 456 -515 
Q 628 -281 628 325 
L 628 4666 
z
" transform="scale(0.015625)"/>
     </defs>
     <use xlink:href="#DejaVuSans-41"/>
     <use xlink:href="#DejaVuSans-44" x="68.408203"/>
     <use xlink:href="#DejaVuSans-4a" x="145.410156"/>
    </g>
   </g>
   <g id="text_6">
    <!-- LM317T -->
    <g transform="translate(196.350875 218.81625) scale(0.08 -0.08)">
     <defs>
      <path id="DejaVuSans-4c" d="M 628 4666 
L 1259 4666 
L 1259 531 
L 3531 531 
L 3531 0 
L 628 0 
L 628 4666 
z
" transform="scale(0.015625)"/>
      <path id="DejaVuSans-4d" d="M 628 4666 
L 1569 4666 
L 2759 1491 
L 3956 4666 
L 4897 4666 
L 4897 0 
L 4281 0 
L 4281 4097 
L 3078 897 
L 2444 897 
L 1241 4097 
L 1241 0 
L 628 0 
L 628 4666 
z
" transform="scale(0.015625)"/>
      <path id="DejaVuSans-37" d="M 525 4666 
L 3525 4666 
L 3525 4397 
L 1831 0 
L 1172 0 
L 2766 4134 
L 525 4134 
L 525 4666 
z
" transform="scale(0.015625)"/>
     </defs>
     <use xlink:href="#DejaVuSans-4c"/>
     <use xlink:href="#DejaVuSans-4d" x="55.712891"/>
     <use xlink:href="#DejaVuSans-33" x="141.992188"/>
     <use xlink:href="#DejaVuSans-31" x="205.615234"/>
     <use xlink:href="#DejaVuSans-37" x="269.238281"/>
     <use xlink:href="#DejaVuSans-54" x="332.861328"/>
    </g>
    <!-- to 5V -->
    <g transform="translate(201.540875 226.55875) scale(0.08 -0.08)">
     <defs>
      <path id="DejaVuSans-74" d="M 1172 4494 
L 1172 3500 
L 2356 3500 
L 2356 3053 
L 1172 3053 
L 1172 1153 
Q 1172 725 1289 603 
Q 1406 481 1766 481 
L 2356 481 
L 2356 0 
L 1766 0 
Q 1100 0 847 248 
Q 594 497 594 1153 
L 594 3053 
L 172 3053 
L 172 3500 
L 594 3500 
L 594 4494 
L 1172 4494 
z
" transform="scale(0.015625)"/>
      <path id="DejaVuSans-6f" d="M 1959 3097 
Q 1497 3097 1228 2736 
Q 959 2375 959 1747 
Q 959 1119 1226 758 
Q 1494 397 1959 397 
Q 2419 397 2687 759 
Q 2956 1122 2956 1747 
Q 2956 2369 2687 2733 
Q 2419 3097 1959 3097 
z
M 1959 3584 
Q 2709 3584 3137 3096 
Q 3566 2609 3566 1747 
Q 3566 888 3137 398 
Q 2709 -91 1959 -91 
Q 1206 -91 779 398 
Q 353 888 353 1747 
Q 353 2609 779 3096 
Q 1206 3584 1959 3584 
z
" transform="scale(0.015625)"/>
      <path id="DejaVuSans-35" d="M 691 4666 
L 3169 4666 
L 3169 4134 
L 1269 4134 
L 1269 2991 
Q 1406 3038 1543 3061 
Q 1681 3084 1819 3084 
Q 2600 3084 3056 2656 
Q 3513 2228 3513 1497 
Q 3513 744 3044 326 
Q 2575 -91 1722 -91 
Q 1428 -91 1123 -41 
Q 819 9 494 109 
L 494 744 
Q 775 591 1075 516 
Q 1375 441 1709 441 
Q 2250 441 2565 725 
Q 2881 1009 2881 1497 
Q 2881 1984 2565 2268 
Q 2250 2553 1709 2553 
Q 1456 2553 1204 2497 
Q 953 2441 691 2322 
L 691 4666 
z
" transform="scale(0.015625)"/>
     </defs>
     <use xlink:href="#DejaVuSans-74"/>
     <use xlink:href="#DejaVuSans-6f" x="39.208984"/>
     <use xlink:href="#DejaVuSans-20" x="100.390625"/>
     <use xlink:href="#DejaVuSans-35" x="132.177734"/>
     <use xlink:href="#DejaVuSans-56" x="195.800781"/>
    </g>
   </g>
   <g id="text_7">
    <!-- R_ADJ2 -->
    <g transform="translate(194.188375 255.85125) scale(0.08 -0.08)">
     <defs>
      <path id="DejaVuSans-52" d="M 2841 2188 
Q 3044 2119 3236 1894 
Q 3428 1669 3622 1275 
L 4263 0 
L 3584 0 
L 2988 1197 
Q 2756 1666 2539 1819 
Q 2322 1972 1947 1972 
L 1259 1972 
L 1259 0 
L 628 0 
L 628 4666 
L 2053 4666 
Q 2853 4666 3247 4331 
Q 3641 3997 3641 3322 
Q 3641 2881 3436 2590 
Q 3231 2300 2841 2188 
z
M 1259 4147 
L 1259 2491 
L 2053 2491 
Q 2509 2491 2742 2702 
Q 2975 2913 2975 3322 
Q 2975 3731 2742 3939 
Q 2509 4147 2053 4147 
L 1259 4147 
z
" transform="scale(0.015625)"/>
      <path id="DejaVuSans-5f" d="M 3263 -1063 
L 3263 -1509 
L -63 -1509 
L -63 -1063 
L 3263 -1063 
z
" transform="scale(0.015625)"/>
     </defs>
     <use xlink:href="#DejaVuSans-52"/>
     <use xlink:href="#DejaVuSans-5f" x="69.482422"/>
     <use xlink:href="#DejaVuSans-41" x="119.482422"/>
     <use xlink:href="#DejaVuSans-44" x="187.890625"/>
     <use xlink:href="#DejaVuSans-4a" x="264.892578"/>
     <use xlink:href="#DejaVuSans-32" x="294.384766"/>
    </g>
    <!-- 720R -->
    <g transform="translate(198.094625 263.81625) scale(0.08 -0.08)">
     <use xlink:href="#DejaVuSans-37"/>
     <use xlink:href="#DejaVuSans-32" x="63.623047"/>
     <use xlink:href="#DejaVuSans-30" x="127.246094"/>
     <use xlink:href="#DejaVuSans-52" x="190.869141"/>
    </g>
   </g>
   <g id="text_8">
    <!-- R_ADJ1 -->
    <g transform="translate(221.188375 246.85125) scale(0.08 -0.08)">
     <use xlink:href="#DejaVuSans-52"/>
     <use xlink:href="#DejaVuSans-5f" x="69.482422"/>
     <use xlink:href="#DejaVuSans-41" x="119.482422"/>
     <use xlink:href="#DejaVuSans-44" x="187.890625"/>
     <use xlink:href="#DejaVuSans-4a" x="264.892578"/>
     <use xlink:href="#DejaVuSans-31" x="294.384766"/>
    </g>
    <!-- 240R -->
    <g transform="translate(225.094625 254.81625) scale(0.08 -0.08)">
     <defs>
      <path id="DejaVuSans-34" d="M 2419 4116 
L 825 1625 
L 2419 1625 
L 2419 4116 
z
M 2253 4666 
L 3047 4666 
L 3047 1625 
L 3713 1625 
L 3713 1100 
L 3047 1100 
L 3047 0 
L 2419 0 
L 2419 1100 
L 313 1100 
L 313 1709 
L 2253 4666 
z
" transform="scale(0.015625)"/>
     </defs>
     <use xlink:href="#DejaVuSans-32"/>
     <use xlink:href="#DejaVuSans-34" x="63.623047"/>
     <use xlink:href="#DejaVuSans-30" x="127.246094"/>
     <use xlink:href="#DejaVuSans-52" x="190.869141"/>
    </g>
   </g>
   <g id="text_9">
    <!-- +5V -->
    <g transform="translate(344.238453 223.515313) scale(0.11 -0.11)">
     <defs>
      <path id="DejaVuSans-2b" d="M 2944 4013 
L 2944 2272 
L 4684 2272 
L 4684 1741 
L 2944 1741 
L 2944 0 
L 2419 0 
L 2419 1741 
L 678 1741 
L 678 2272 
L 2419 2272 
L 2419 4013 
L 2944 4013 
z
" transform="scale(0.015625)"/>
     </defs>
     <use xlink:href="#DejaVuSans-2b"/>
     <use xlink:href="#DejaVuSans-35" x="83.789062"/>
     <use xlink:href="#DejaVuSans-56" x="147.412109"/>
    </g>
   </g>
   <g id="text_10">
    <!-- C4 -->
    <g transform="translate(346.503609 209.897969) scale(0.09 -0.09)">
     <use xlink:href="#DejaVuSans-43"/>
     <use xlink:href="#DejaVuSans-34" x="69.824219"/>
    </g>
    <!-- 100nF -->
    <g transform="translate(338.479547 218.608281) scale(0.09 -0.09)">
     <use xlink:href="#DejaVuSans-31"/>
     <use xlink:href="#DejaVuSans-30" x="63.623047"/>
     <use xlink:href="#DejaVuSans-30" x="127.246094"/>
     <use xlink:href="#DejaVuSans-6e" x="190.869141"/>
     <use xlink:href="#DejaVuSans-46" x="254.248047"/>
    </g>
   </g>
   <g id="text_11">
    <!-- IN -->
    <g transform="translate(483.909 227.943125) scale(0.14 -0.14)">
     <use xlink:href="#DejaVuSans-49"/>
     <use xlink:href="#DejaVuSans-4e" x="29.492188"/>
    </g>
   </g>
   <g id="text_12">
    <!-- OUT -->
    <g transform="translate(551.291187 227.943125) scale(0.14 -0.14)">
     <use xlink:href="#DejaVuSans-4f"/>
     <use xlink:href="#DejaVuSans-55" x="78.710938"/>
     <use xlink:href="#DejaVuSans-54" x="151.904297"/>
    </g>
   </g>
   <g id="text_13">
    <!-- ADJ -->
    <g transform="translate(520.265562 242.768438) scale(0.14 -0.14)">
     <use xlink:href="#DejaVuSans-41"/>
     <use xlink:href="#DejaVuSans-44" x="68.408203"/>
     <use xlink:href="#DejaVuSans-4a" x="145.410156"/>
    </g>
   </g>
   <g id="text_14">
    <!-- LM317T-2 -->
    <g transform="translate(516.72775 218.81625) scale(0.08 -0.08)">
     <defs>
      <path id="DejaVuSans-2d" d="M 313 2009 
L 1997 2009 
L 1997 1497 
L 313 1497 
L 313 2009 
z
" transform="scale(0.015625)"/>
     </defs>
     <use xlink:href="#DejaVuSans-4c"/>
     <use xlink:href="#DejaVuSans-4d" x="55.712891"/>
     <use xlink:href="#DejaVuSans-33" x="141.992188"/>
     <use xlink:href="#DejaVuSans-31" x="205.615234"/>
     <use xlink:href="#DejaVuSans-37" x="269.238281"/>
     <use xlink:href="#DejaVuSans-54" x="332.861328"/>
     <use xlink:href="#DejaVuSans-2d" x="384.820312"/>
     <use xlink:href="#DejaVuSans-32" x="420.904297"/>
    </g>
    <!-- to 3V3 -->
    <g transform="translate(522.995875 226.55875) scale(0.08 -0.08)">
     <use xlink:href="#DejaVuSans-74"/>
     <use xlink:href="#DejaVuSans-6f" x="39.208984"/>
     <use xlink:href="#DejaVuSans-20" x="100.390625"/>
     <use xlink:href="#DejaVuSans-33" x="132.177734"/>
     <use xlink:href="#DejaVuSans-56" x="195.800781"/>
     <use xlink:href="#DejaVuSans-33" x="264.208984"/>
    </g>
   </g>
   <g id="text_15">
    <!-- +3V3 -->
    <g transform="translate(646.739078 223.515313) scale(0.11 -0.11)">
     <use xlink:href="#DejaVuSans-2b"/>
     <use xlink:href="#DejaVuSans-33" x="83.789062"/>
     <use xlink:href="#DejaVuSans-56" x="147.412109"/>
     <use xlink:href="#DejaVuSans-33" x="215.820312"/>
    </g>
   </g>
   <g id="text_16">
    <!-- C5 -->
    <g transform="translate(652.503609 209.897969) scale(0.09 -0.09)">
     <use xlink:href="#DejaVuSans-43"/>
     <use xlink:href="#DejaVuSans-35" x="69.824219"/>
    </g>
    <!-- 100nF -->
    <g transform="translate(644.479547 218.608281) scale(0.09 -0.09)">
     <use xlink:href="#DejaVuSans-31"/>
     <use xlink:href="#DejaVuSans-30" x="63.623047"/>
     <use xlink:href="#DejaVuSans-30" x="127.246094"/>
     <use xlink:href="#DejaVuSans-6e" x="190.869141"/>
     <use xlink:href="#DejaVuSans-46" x="254.248047"/>
    </g>
   </g>
   <g id="text_17">
    <!-- A0 -->
    <g transform="translate(287.709 359.343125) scale(0.14 -0.14)">
     <use xlink:href="#DejaVuSans-41"/>
     <use xlink:href="#DejaVuSans-30" x="68.408203"/>
    </g>
   </g>
   <g id="text_18">
    <!-- D0 -->
    <g transform="translate(316.509 359.343125) scale(0.14 -0.14)">
     <use xlink:href="#DejaVuSans-44"/>
     <use xlink:href="#DejaVuSans-30" x="77.001953"/>
    </g>
   </g>
   <g id="text_19">
    <!-- D1 -->
    <g transform="translate(345.309 359.343125) scale(0.14 -0.14)">
     <use xlink:href="#DejaVuSans-44"/>
     <use xlink:href="#DejaVuSans-31" x="77.001953"/>
    </g>
   </g>
   <g id="text_20">
    <!-- D2 -->
    <g transform="translate(374.109 359.343125) scale(0.14 -0.14)">
     <use xlink:href="#DejaVuSans-44"/>
     <use xlink:href="#DejaVuSans-32" x="77.001953"/>
    </g>
   </g>
   <g id="text_21">
    <!-- D3 -->
    <g transform="translate(402.909 359.343125) scale(0.14 -0.14)">
     <use xlink:href="#DejaVuSans-44"/>
     <use xlink:href="#DejaVuSans-33" x="77.001953"/>
    </g>
   </g>
   <g id="text_22">
    <!-- D4 -->
    <g transform="translate(431.709 359.343125) scale(0.14 -0.14)">
     <use xlink:href="#DejaVuSans-44"/>
     <use xlink:href="#DejaVuSans-34" x="77.001953"/>
    </g>
   </g>
   <g id="text_23">
    <!-- D5 -->
    <g transform="translate(460.509 359.343125) scale(0.14 -0.14)">
     <use xlink:href="#DejaVuSans-44"/>
     <use xlink:href="#DejaVuSans-35" x="77.001953"/>
    </g>
   </g>
   <g id="text_24">
    <!-- RX -->
    <g transform="translate(489.309 359.343125) scale(0.14 -0.14)">
     <defs>
      <path id="DejaVuSans-58" d="M 403 4666 
L 1081 4666 
L 2241 2931 
L 3406 4666 
L 4084 4666 
L 2584 2425 
L 4184 0 
L 3506 0 
L 2194 1984 
L 872 0 
L 191 0 
L 1856 2491 
L 403 4666 
z
" transform="scale(0.015625)"/>
     </defs>
     <use xlink:href="#DejaVuSans-52"/>
     <use xlink:href="#DejaVuSans-58" x="69.482422"/>
    </g>
   </g>
   <g id="text_25">
    <!-- D6 -->
    <g transform="translate(296.8215 528.543125) scale(0.14 -0.14)">
     <defs>
      <path id="DejaVuSans-36" d="M 2113 2584 
Q 1688 2584 1439 2293 
Q 1191 2003 1191 1497 
Q 1191 994 1439 701 
Q 1688 409 2113 409 
Q 2538 409 2786 701 
Q 3034 994 3034 1497 
Q 3034 2003 2786 2293 
Q 2538 2584 2113 2584 
z
M 3366 4563 
L 3366 3988 
Q 3128 4100 2886 4159 
Q 2644 4219 2406 4219 
Q 1781 4219 1451 3797 
Q 1122 3375 1075 2522 
Q 1259 2794 1537 2939 
Q 1816 3084 2150 3084 
Q 2853 3084 3261 2657 
Q 3669 2231 3669 1497 
Q 3669 778 3244 343 
Q 2819 -91 2113 -91 
Q 1303 -91 875 529 
Q 447 1150 447 2328 
Q 447 3434 972 4092 
Q 1497 4750 2381 4750 
Q 2619 4750 2861 4703 
Q 3103 4656 3366 4563 
z
" transform="scale(0.015625)"/>
     </defs>
     <use xlink:href="#DejaVuSans-44"/>
     <use xlink:href="#DejaVuSans-36" x="77.001953"/>
    </g>
   </g>
   <g id="text_26">
    <!-- D7 -->
    <g transform="translate(325.6215 528.543125) scale(0.14 -0.14)">
     <use xlink:href="#DejaVuSans-44"/>
     <use xlink:href="#DejaVuSans-37" x="77.001953"/>
    </g>
   </g>
   <g id="text_27">
    <!-- D8 -->
    <g transform="translate(354.4215 528.543125) scale(0.14 -0.14)">
     <defs>
      <path id="DejaVuSans-38" d="M 2034 2216 
Q 1584 2216 1326 1975 
Q 1069 1734 1069 1313 
Q 1069 891 1326 650 
Q 1584 409 2034 409 
Q 2484 409 2743 651 
Q 3003 894 3003 1313 
Q 3003 1734 2745 1975 
Q 2488 2216 2034 2216 
z
M 1403 2484 
Q 997 2584 770 2862 
Q 544 3141 544 3541 
Q 544 4100 942 4425 
Q 1341 4750 2034 4750 
Q 2731 4750 3128 4425 
Q 3525 4100 3525 3541 
Q 3525 3141 3298 2862 
Q 3072 2584 2669 2484 
Q 3125 2378 3379 2068 
Q 3634 1759 3634 1313 
Q 3634 634 3220 271 
Q 2806 -91 2034 -91 
Q 1263 -91 848 271 
Q 434 634 434 1313 
Q 434 1759 690 2068 
Q 947 2378 1403 2484 
z
M 1172 3481 
Q 1172 3119 1398 2916 
Q 1625 2713 2034 2713 
Q 2441 2713 2670 2916 
Q 2900 3119 2900 3481 
Q 2900 3844 2670 4047 
Q 2441 4250 2034 4250 
Q 1625 4250 1398 4047 
Q 1172 3844 1172 3481 
z
" transform="scale(0.015625)"/>
     </defs>
     <use xlink:href="#DejaVuSans-44"/>
     <use xlink:href="#DejaVuSans-38" x="77.001953"/>
    </g>
   </g>
   <g id="text_28">
    <!-- TX -->
    <g transform="translate(384.768063 528.543125) scale(0.14 -0.14)">
     <use xlink:href="#DejaVuSans-54"/>
     <use xlink:href="#DejaVuSans-58" x="61.083984"/>
    </g>
   </g>
   <g id="text_29">
    <!-- RST -->
    <g transform="translate(404.542438 528.543125) scale(0.14 -0.14)">
     <defs>
      <path id="DejaVuSans-53" d="M 3425 4513 
L 3425 3897 
Q 3066 4069 2747 4153 
Q 2428 4238 2131 4238 
Q 1616 4238 1336 4038 
Q 1056 3838 1056 3469 
Q 1056 3159 1242 3001 
Q 1428 2844 1947 2747 
L 2328 2669 
Q 3034 2534 3370 2195 
Q 3706 1856 3706 1288 
Q 3706 609 3251 259 
Q 2797 -91 1919 -91 
Q 1588 -91 1214 -16 
Q 841 59 441 206 
L 441 856 
Q 825 641 1194 531 
Q 1563 422 1919 422 
Q 2459 422 2753 634 
Q 3047 847 3047 1241 
Q 3047 1584 2836 1778 
Q 2625 1972 2144 2069 
L 1759 2144 
Q 1053 2284 737 2584 
Q 422 2884 422 3419 
Q 422 4038 858 4394 
Q 1294 4750 2059 4750 
Q 2388 4750 2728 4690 
Q 3069 4631 3425 4513 
z
" transform="scale(0.015625)"/>
     </defs>
     <use xlink:href="#DejaVuSans-52"/>
     <use xlink:href="#DejaVuSans-53" x="69.482422"/>
     <use xlink:href="#DejaVuSans-54" x="132.958984"/>
    </g>
   </g>
   <g id="text_30">
    <!-- EN -->
    <g transform="translate(441.189 528.543125) scale(0.14 -0.14)">
     <defs>
      <path id="DejaVuSans-45" d="M 628 4666 
L 3578 4666 
L 3578 4134 
L 1259 4134 
L 1259 2753 
L 3481 2753 
L 3481 2222 
L 1259 2222 
L 1259 531 
L 3634 531 
L 3634 0 
L 628 0 
L 628 4666 
z
" transform="scale(0.015625)"/>
     </defs>
     <use xlink:href="#DejaVuSans-45"/>
     <use xlink:href="#DejaVuSans-4e" x="63.183594"/>
    </g>
   </g>
   <g id="text_31">
    <!-- VCC -->
    <g transform="translate(512.544625 450.717813) scale(0.14 -0.14)">
     <use xlink:href="#DejaVuSans-56"/>
     <use xlink:href="#DejaVuSans-43" x="68.408203"/>
     <use xlink:href="#DejaVuSans-43" x="138.232422"/>
    </g>
   </g>
   <g id="text_32">
    <!-- GND -->
    <g transform="translate(233.858219 437.168438) scale(0.14 -0.14)">
     <defs>
      <path id="DejaVuSans-47" d="M 3809 666 
L 3809 1919 
L 2778 1919 
L 2778 2438 
L 4434 2438 
L 4434 434 
Q 4069 175 3628 42 
Q 3188 -91 2688 -91 
Q 1594 -91 976 548 
Q 359 1188 359 2328 
Q 359 3472 976 4111 
Q 1594 4750 2688 4750 
Q 3144 4750 3555 4637 
Q 3966 4525 4313 4306 
L 4313 3634 
Q 3963 3931 3569 4081 
Q 3175 4231 2741 4231 
Q 1884 4231 1454 3753 
Q 1025 3275 1025 2328 
Q 1025 1384 1454 906 
Q 1884 428 2741 428 
Q 3075 428 3337 486 
Q 3600 544 3809 666 
z
" transform="scale(0.015625)"/>
     </defs>
     <use xlink:href="#DejaVuSans-47"/>
     <use xlink:href="#DejaVuSans-4e" x="77.490234"/>
     <use xlink:href="#DejaVuSans-44" x="152.294922"/>
    </g>
   </g>
   <g id="text_33">
    <!-- NodeMCU -->
    <g transform="translate(370.044938 441.808281) scale(0.09 -0.09)">
     <defs>
      <path id="DejaVuSans-64" d="M 2906 2969 
L 2906 4863 
L 3481 4863 
L 3481 0 
L 2906 0 
L 2906 525 
Q 2725 213 2448 61 
Q 2172 -91 1784 -91 
Q 1150 -91 751 415 
Q 353 922 353 1747 
Q 353 2572 751 3078 
Q 1150 3584 1784 3584 
Q 2172 3584 2448 3432 
Q 2725 3281 2906 2969 
z
M 947 1747 
Q 947 1113 1208 752 
Q 1469 391 1925 391 
Q 2381 391 2643 752 
Q 2906 1113 2906 1747 
Q 2906 2381 2643 2742 
Q 2381 3103 1925 3103 
Q 1469 3103 1208 2742 
Q 947 2381 947 1747 
z
" transform="scale(0.015625)"/>
      <path id="DejaVuSans-65" d="M 3597 1894 
L 3597 1613 
L 953 1613 
Q 991 1019 1311 708 
Q 1631 397 2203 397 
Q 2534 397 2845 478 
Q 3156 559 3463 722 
L 3463 178 
Q 3153 47 2828 -22 
Q 2503 -91 2169 -91 
Q 1331 -91 842 396 
Q 353 884 353 1716 
Q 353 2575 817 3079 
Q 1281 3584 2069 3584 
Q 2775 3584 3186 3129 
Q 3597 2675 3597 1894 
z
M 3022 2063 
Q 3016 2534 2758 2815 
Q 2500 3097 2075 3097 
Q 1594 3097 1305 2825 
Q 1016 2553 972 2059 
L 3022 2063 
z
" transform="scale(0.015625)"/>
     </defs>
     <use xlink:href="#DejaVuSans-4e"/>
     <use xlink:href="#DejaVuSans-6f" x="74.804688"/>
     <use xlink:href="#DejaVuSans-64" x="135.986328"/>
     <use xlink:href="#DejaVuSans-65" x="199.462891"/>
     <use xlink:href="#DejaVuSans-4d" x="260.986328"/>
     <use xlink:href="#DejaVuSans-43" x="347.265625"/>
     <use xlink:href="#DejaVuSans-55" x="417.089844"/>
    </g>
    <!-- ESP8266 -->
    <g transform="translate(372.242906 450.518594) scale(0.09 -0.09)">
     <defs>
      <path id="DejaVuSans-50" d="M 1259 4147 
L 1259 2394 
L 2053 2394 
Q 2494 2394 2734 2622 
Q 2975 2850 2975 3272 
Q 2975 3691 2734 3919 
Q 2494 4147 2053 4147 
L 1259 4147 
z
M 628 4666 
L 2053 4666 
Q 2838 4666 3239 4311 
Q 3641 3956 3641 3272 
Q 3641 2581 3239 2228 
Q 2838 1875 2053 1875 
L 1259 1875 
L 1259 0 
L 628 0 
L 628 4666 
z
" transform="scale(0.015625)"/>
     </defs>
     <use xlink:href="#DejaVuSans-45"/>
     <use xlink:href="#DejaVuSans-53" x="63.183594"/>
     <use xlink:href="#DejaVuSans-50" x="126.660156"/>
     <use xlink:href="#DejaVuSans-38" x="186.962891"/>
     <use xlink:href="#DejaVuSans-32" x="250.585938"/>
     <use xlink:href="#DejaVuSans-36" x="314.208984"/>
     <use xlink:href="#DejaVuSans-36" x="377.832031"/>
    </g>
   </g>
   <g id="text_34">
    <!-- +3V3 -->
    <g transform="translate(535.139078 419.792344) scale(0.11 -0.11)">
     <use xlink:href="#DejaVuSans-2b"/>
     <use xlink:href="#DejaVuSans-33" x="83.789062"/>
     <use xlink:href="#DejaVuSans-56" x="147.412109"/>
     <use xlink:href="#DejaVuSans-33" x="215.820312"/>
    </g>
   </g>
   <g id="text_35">
    <!-- SCL -->
    <g transform="translate(341.34775 334.55875) scale(0.08 -0.08)">
     <use xlink:href="#DejaVuSans-53"/>
     <use xlink:href="#DejaVuSans-43" x="63.476562"/>
     <use xlink:href="#DejaVuSans-4c" x="133.300781"/>
    </g>
   </g>
   <g id="text_36">
    <!-- SDA -->
    <g transform="translate(369.423375 334.55875) scale(0.08 -0.08)">
     <use xlink:href="#DejaVuSans-53"/>
     <use xlink:href="#DejaVuSans-44" x="63.476562"/>
     <use xlink:href="#DejaVuSans-41" x="138.728516"/>
    </g>
   </g>
   <g id="text_37">
    <!-- PA0 -->
    <g transform="translate(768.309 359.343125) scale(0.14 -0.14)">
     <use xlink:href="#DejaVuSans-50"/>
     <use xlink:href="#DejaVuSans-41" x="53.927734"/>
     <use xlink:href="#DejaVuSans-30" x="122.335938"/>
    </g>
   </g>
   <g id="text_38">
    <!-- PA1 -->
    <g transform="translate(793.509 359.343125) scale(0.14 -0.14)">
     <use xlink:href="#DejaVuSans-50"/>
     <use xlink:href="#DejaVuSans-41" x="53.927734"/>
     <use xlink:href="#DejaVuSans-31" x="122.335938"/>
    </g>
   </g>
   <g id="text_39">
    <!-- PA2 -->
    <g transform="translate(818.709 359.343125) scale(0.14 -0.14)">
     <use xlink:href="#DejaVuSans-50"/>
     <use xlink:href="#DejaVuSans-41" x="53.927734"/>
     <use xlink:href="#DejaVuSans-32" x="122.335938"/>
    </g>
   </g>
   <g id="text_40">
    <!-- PA3 -->
    <g transform="translate(843.909 359.343125) scale(0.14 -0.14)">
     <use xlink:href="#DejaVuSans-50"/>
     <use xlink:href="#DejaVuSans-41" x="53.927734"/>
     <use xlink:href="#DejaVuSans-33" x="122.335938"/>
    </g>
   </g>
   <g id="text_41">
    <!-- PA4 -->
    <g transform="translate(869.109 359.343125) scale(0.14 -0.14)">
     <use xlink:href="#DejaVuSans-50"/>
     <use xlink:href="#DejaVuSans-41" x="53.927734"/>
     <use xlink:href="#DejaVuSans-34" x="122.335938"/>
    </g>
   </g>
   <g id="text_42">
    <!-- PA5 -->
    <g transform="translate(894.309 359.343125) scale(0.14 -0.14)">
     <use xlink:href="#DejaVuSans-50"/>
     <use xlink:href="#DejaVuSans-41" x="53.927734"/>
     <use xlink:href="#DejaVuSans-35" x="122.335938"/>
    </g>
   </g>
   <g id="text_43">
    <!-- PA6 -->
    <g transform="translate(919.509 359.343125) scale(0.14 -0.14)">
     <use xlink:href="#DejaVuSans-50"/>
     <use xlink:href="#DejaVuSans-41" x="53.927734"/>
     <use xlink:href="#DejaVuSans-36" x="122.335938"/>
    </g>
   </g>
   <g id="text_44">
    <!-- PA7 -->
    <g transform="translate(944.709 359.343125) scale(0.14 -0.14)">
     <use xlink:href="#DejaVuSans-50"/>
     <use xlink:href="#DejaVuSans-41" x="53.927734"/>
     <use xlink:href="#DejaVuSans-37" x="122.335938"/>
    </g>
   </g>
   <g id="text_45">
    <!-- PB0 -->
    <g transform="translate(741.354625 528.543125) scale(0.14 -0.14)">
     <defs>
      <path id="DejaVuSans-42" d="M 1259 2228 
L 1259 519 
L 2272 519 
Q 2781 519 3026 730 
Q 3272 941 3272 1375 
Q 3272 1813 3026 2020 
Q 2781 2228 2272 2228 
L 1259 2228 
z
M 1259 4147 
L 1259 2741 
L 2194 2741 
Q 2656 2741 2882 2914 
Q 3109 3088 3109 3444 
Q 3109 3797 2882 3972 
Q 2656 4147 2194 4147 
L 1259 4147 
z
M 628 4666 
L 2241 4666 
Q 2963 4666 3353 4366 
Q 3744 4066 3744 3513 
Q 3744 3084 3544 2831 
Q 3344 2578 2956 2516 
Q 3422 2416 3680 2098 
Q 3938 1781 3938 1306 
Q 3938 681 3513 340 
Q 3088 0 2303 0 
L 628 0 
L 628 4666 
z
" transform="scale(0.015625)"/>
     </defs>
     <use xlink:href="#DejaVuSans-50"/>
     <use xlink:href="#DejaVuSans-42" x="60.302734"/>
     <use xlink:href="#DejaVuSans-30" x="128.90625"/>
    </g>
   </g>
   <g id="text_46">
    <!-- PB1 -->
    <g transform="translate(766.554625 528.543125) scale(0.14 -0.14)">
     <use xlink:href="#DejaVuSans-50"/>
     <use xlink:href="#DejaVuSans-42" x="60.302734"/>
     <use xlink:href="#DejaVuSans-31" x="128.90625"/>
    </g>
   </g>
   <g id="text_47">
    <!-- PB2 -->
    <g transform="translate(791.754625 528.543125) scale(0.14 -0.14)">
     <use xlink:href="#DejaVuSans-50"/>
     <use xlink:href="#DejaVuSans-42" x="60.302734"/>
     <use xlink:href="#DejaVuSans-32" x="128.90625"/>
    </g>
   </g>
   <g id="text_48">
    <!-- PB3 -->
    <g transform="translate(816.954625 528.543125) scale(0.14 -0.14)">
     <use xlink:href="#DejaVuSans-50"/>
     <use xlink:href="#DejaVuSans-42" x="60.302734"/>
     <use xlink:href="#DejaVuSans-33" x="128.90625"/>
    </g>
   </g>
   <g id="text_49">
    <!-- PB4 -->
    <g transform="translate(842.154625 528.543125) scale(0.14 -0.14)">
     <use xlink:href="#DejaVuSans-50"/>
     <use xlink:href="#DejaVuSans-42" x="60.302734"/>
     <use xlink:href="#DejaVuSans-34" x="128.90625"/>
    </g>
   </g>
   <g id="text_50">
    <!-- PB5 -->
    <g transform="translate(867.354625 528.543125) scale(0.14 -0.14)">
     <use xlink:href="#DejaVuSans-50"/>
     <use xlink:href="#DejaVuSans-42" x="60.302734"/>
     <use xlink:href="#DejaVuSans-35" x="128.90625"/>
    </g>
   </g>
   <g id="text_51">
    <!-- PB6 -->
    <g transform="translate(892.554625 528.543125) scale(0.14 -0.14)">
     <use xlink:href="#DejaVuSans-50"/>
     <use xlink:href="#DejaVuSans-42" x="60.302734"/>
     <use xlink:href="#DejaVuSans-36" x="128.90625"/>
    </g>
   </g>
   <g id="text_52">
    <!-- PB7 -->
    <g transform="translate(917.754625 528.543125) scale(0.14 -0.14)">
     <use xlink:href="#DejaVuSans-50"/>
     <use xlink:href="#DejaVuSans-42" x="60.302734"/>
     <use xlink:href="#DejaVuSans-37" x="128.90625"/>
    </g>
   </g>
   <g id="text_53">
    <!-- VDD -->
    <g transform="translate(997.540563 429.117813) scale(0.14 -0.14)">
     <use xlink:href="#DejaVuSans-56"/>
     <use xlink:href="#DejaVuSans-44" x="68.408203"/>
     <use xlink:href="#DejaVuSans-44" x="145.410156"/>
    </g>
   </g>
   <g id="text_54">
    <!-- SCL -->
    <g transform="translate(999.876813 472.317813) scale(0.14 -0.14)">
     <use xlink:href="#DejaVuSans-53"/>
     <use xlink:href="#DejaVuSans-43" x="63.476562"/>
     <use xlink:href="#DejaVuSans-4c" x="133.300781"/>
    </g>
   </g>
   <g id="text_55">
    <!-- GND -->
    <g transform="translate(683.858219 415.568438) scale(0.14 -0.14)">
     <use xlink:href="#DejaVuSans-47"/>
     <use xlink:href="#DejaVuSans-4e" x="77.490234"/>
     <use xlink:href="#DejaVuSans-44" x="152.294922"/>
    </g>
   </g>
   <g id="text_56">
    <!-- SDA -->
    <g transform="translate(685.409156 458.768438) scale(0.14 -0.14)">
     <use xlink:href="#DejaVuSans-53"/>
     <use xlink:href="#DejaVuSans-44" x="63.476562"/>
     <use xlink:href="#DejaVuSans-41" x="138.728516"/>
    </g>
   </g>
   <g id="text_57">
    <!-- MCP23017 -->
    <g transform="translate(838.72775 438.145) scale(0.08 -0.08)">
     <use xlink:href="#DejaVuSans-4d"/>
     <use xlink:href="#DejaVuSans-43" x="86.279297"/>
     <use xlink:href="#DejaVuSans-50" x="156.103516"/>
     <use xlink:href="#DejaVuSans-32" x="216.40625"/>
     <use xlink:href="#DejaVuSans-33" x="280.029297"/>
     <use xlink:href="#DejaVuSans-30" x="343.652344"/>
     <use xlink:href="#DejaVuSans-31" x="407.275391"/>
     <use xlink:href="#DejaVuSans-37" x="470.898438"/>
    </g>
    <!-- GPIO Expander -->
    <g transform="translate(829.932125 445.8875) scale(0.08 -0.08)">
     <defs>
      <path id="DejaVuSans-78" d="M 3513 3500 
L 2247 1797 
L 3578 0 
L 2900 0 
L 1881 1375 
L 863 0 
L 184 0 
L 1544 1831 
L 300 3500 
L 978 3500 
L 1906 2253 
L 2834 3500 
L 3513 3500 
z
" transform="scale(0.015625)"/>
      <path id="DejaVuSans-70" d="M 1159 525 
L 1159 -1331 
L 581 -1331 
L 581 3500 
L 1159 3500 
L 1159 2969 
Q 1341 3281 1617 3432 
Q 1894 3584 2278 3584 
Q 2916 3584 3314 3078 
Q 3713 2572 3713 1747 
Q 3713 922 3314 415 
Q 2916 -91 2278 -91 
Q 1894 -91 1617 61 
Q 1341 213 1159 525 
z
M 3116 1747 
Q 3116 2381 2855 2742 
Q 2594 3103 2138 3103 
Q 1681 3103 1420 2742 
Q 1159 2381 1159 1747 
Q 1159 1113 1420 752 
Q 1681 391 2138 391 
Q 2594 391 2855 752 
Q 3116 1113 3116 1747 
z
" transform="scale(0.015625)"/>
      <path id="DejaVuSans-61" d="M 2194 1759 
Q 1497 1759 1228 1600 
Q 959 1441 959 1056 
Q 959 750 1161 570 
Q 1363 391 1709 391 
Q 2188 391 2477 730 
Q 2766 1069 2766 1631 
L 2766 1759 
L 2194 1759 
z
M 3341 1997 
L 3341 0 
L 2766 0 
L 2766 531 
Q 2569 213 2275 61 
Q 1981 -91 1556 -91 
Q 1019 -91 701 211 
Q 384 513 384 1019 
Q 384 1609 779 1909 
Q 1175 2209 1959 2209 
L 2766 2209 
L 2766 2266 
Q 2766 2663 2505 2880 
Q 2244 3097 1772 3097 
Q 1472 3097 1187 3025 
Q 903 2953 641 2809 
L 641 3341 
Q 956 3463 1253 3523 
Q 1550 3584 1831 3584 
Q 2591 3584 2966 3190 
Q 3341 2797 3341 1997 
z
" transform="scale(0.015625)"/>
      <path id="DejaVuSans-72" d="M 2631 2963 
Q 2534 3019 2420 3045 
Q 2306 3072 2169 3072 
Q 1681 3072 1420 2755 
Q 1159 2438 1159 1844 
L 1159 0 
L 581 0 
L 581 3500 
L 1159 3500 
L 1159 2956 
Q 1341 3275 1631 3429 
Q 1922 3584 2338 3584 
Q 2397 3584 2469 3576 
Q 2541 3569 2628 3553 
L 2631 2963 
z
" transform="scale(0.015625)"/>
     </defs>
     <use xlink:href="#DejaVuSans-47"/>
     <use xlink:href="#DejaVuSans-50" x="77.490234"/>
     <use xlink:href="#DejaVuSans-49" x="137.792969"/>
     <use xlink:href="#DejaVuSans-4f" x="167.285156"/>
     <use xlink:href="#DejaVuSans-20" x="245.996094"/>
     <use xlink:href="#DejaVuSans-45" x="277.783203"/>
     <use xlink:href="#DejaVuSans-78" x="340.966797"/>
     <use xlink:href="#DejaVuSans-70" x="400.146484"/>
     <use xlink:href="#DejaVuSans-61" x="463.623047"/>
     <use xlink:href="#DejaVuSans-6e" x="524.902344"/>
     <use xlink:href="#DejaVuSans-64" x="588.28125"/>
     <use xlink:href="#DejaVuSans-65" x="651.757812"/>
     <use xlink:href="#DejaVuSans-72" x="713.28125"/>
    </g>
    <!-- DIP-28 -->
    <g transform="translate(846.994 453.63) scale(0.08 -0.08)">
     <use xlink:href="#DejaVuSans-44"/>
     <use xlink:href="#DejaVuSans-49" x="77.001953"/>
     <use xlink:href="#DejaVuSans-50" x="106.494141"/>
     <use xlink:href="#DejaVuSans-2d" x="164.546875"/>
     <use xlink:href="#DejaVuSans-32" x="200.630859"/>
     <use xlink:href="#DejaVuSans-38" x="264.253906"/>
    </g>
   </g>
   <g id="text_58">
    <!-- +5V -->
    <g transform="translate(1024.638453 398.192344) scale(0.11 -0.11)">
     <use xlink:href="#DejaVuSans-2b"/>
     <use xlink:href="#DejaVuSans-35" x="83.789062"/>
     <use xlink:href="#DejaVuSans-56" x="147.412109"/>
    </g>
   </g>
   <g id="text_59">
    <!-- R_SCL -->
    <g transform="translate(1024.168375 394.45125) scale(0.08 -0.08)">
     <use xlink:href="#DejaVuSans-52"/>
     <use xlink:href="#DejaVuSans-5f" x="69.482422"/>
     <use xlink:href="#DejaVuSans-53" x="119.482422"/>
     <use xlink:href="#DejaVuSans-43" x="182.958984"/>
     <use xlink:href="#DejaVuSans-4c" x="252.783203"/>
    </g>
    <!-- 4k7 -->
    <g transform="translate(1029.10275 402.41625) scale(0.08 -0.08)">
     <defs>
      <path id="DejaVuSans-6b" d="M 581 4863 
L 1159 4863 
L 1159 1991 
L 2875 3500 
L 3609 3500 
L 1753 1863 
L 3688 0 
L 2938 0 
L 1159 1709 
L 1159 0 
L 581 0 
L 581 4863 
z
" transform="scale(0.015625)"/>
     </defs>
     <use xlink:href="#DejaVuSans-34"/>
     <use xlink:href="#DejaVuSans-6b" x="63.623047"/>
     <use xlink:href="#DejaVuSans-37" x="121.533203"/>
    </g>
   </g>
   <g id="text_60">
    <!-- +5V -->
    <g transform="translate(1027.875875 388.01625) scale(0.08 -0.08)">
     <use xlink:href="#DejaVuSans-2b"/>
     <use xlink:href="#DejaVuSans-35" x="83.789062"/>
     <use xlink:href="#DejaVuSans-56" x="147.412109"/>
    </g>
   </g>
   <g id="text_61">
    <!-- R_SDA -->
    <g transform="translate(663.444 448.45125) scale(0.08 -0.08)">
     <use xlink:href="#DejaVuSans-52"/>
     <use xlink:href="#DejaVuSans-5f" x="69.482422"/>
     <use xlink:href="#DejaVuSans-53" x="119.482422"/>
     <use xlink:href="#DejaVuSans-44" x="182.958984"/>
     <use xlink:href="#DejaVuSans-41" x="258.210938"/>
    </g>
    <!-- 4k7 -->
    <g transform="translate(669.10275 456.41625) scale(0.08 -0.08)">
     <use xlink:href="#DejaVuSans-34"/>
     <use xlink:href="#DejaVuSans-6b" x="63.623047"/>
     <use xlink:href="#DejaVuSans-37" x="121.533203"/>
    </g>
   </g>
   <g id="text_62">
    <!-- S1 -->
    <g transform="translate(842.109 656.343125) scale(0.14 -0.14)">
     <use xlink:href="#DejaVuSans-53"/>
     <use xlink:href="#DejaVuSans-31" x="63.476562"/>
    </g>
   </g>
   <g id="text_63">
    <!-- S2 -->
    <g transform="translate(856.509 656.343125) scale(0.14 -0.14)">
     <use xlink:href="#DejaVuSans-53"/>
     <use xlink:href="#DejaVuSans-32" x="63.476562"/>
    </g>
   </g>
   <g id="text_64">
    <!-- S3 -->
    <g transform="translate(870.909 656.343125) scale(0.14 -0.14)">
     <use xlink:href="#DejaVuSans-53"/>
     <use xlink:href="#DejaVuSans-33" x="63.476562"/>
    </g>
   </g>
   <g id="text_65">
    <!-- SW1 -->
    <g transform="translate(851.069625 694.01625) scale(0.08 -0.08)">
     <defs>
      <path id="DejaVuSans-57" d="M 213 4666 
L 850 4666 
L 1831 722 
L 2809 4666 
L 3519 4666 
L 4500 722 
L 5478 4666 
L 6119 4666 
L 4947 0 
L 4153 0 
L 3169 4050 
L 2175 0 
L 1381 0 
L 213 4666 
z
" transform="scale(0.015625)"/>
     </defs>
     <use xlink:href="#DejaVuSans-53"/>
     <use xlink:href="#DejaVuSans-57" x="63.476562"/>
     <use xlink:href="#DejaVuSans-31" x="162.353516"/>
    </g>
    <!-- 3-pos DIP -->
    <g transform="translate(841.107125 701.75875) scale(0.08 -0.08)">
     <defs>
      <path id="DejaVuSans-73" d="M 2834 3397 
L 2834 2853 
Q 2591 2978 2328 3040 
Q 2066 3103 1784 3103 
Q 1356 3103 1142 2972 
Q 928 2841 928 2578 
Q 928 2378 1081 2264 
Q 1234 2150 1697 2047 
L 1894 2003 
Q 2506 1872 2764 1633 
Q 3022 1394 3022 966 
Q 3022 478 2636 193 
Q 2250 -91 1575 -91 
Q 1294 -91 989 -36 
Q 684 19 347 128 
L 347 722 
Q 666 556 975 473 
Q 1284 391 1588 391 
Q 1994 391 2212 530 
Q 2431 669 2431 922 
Q 2431 1156 2273 1281 
Q 2116 1406 1581 1522 
L 1381 1569 
Q 847 1681 609 1914 
Q 372 2147 372 2553 
Q 372 3047 722 3315 
Q 1072 3584 1716 3584 
Q 2034 3584 2315 3537 
Q 2597 3491 2834 3397 
z
" transform="scale(0.015625)"/>
     </defs>
     <use xlink:href="#DejaVuSans-33"/>
     <use xlink:href="#DejaVuSans-2d" x="63.623047"/>
     <use xlink:href="#DejaVuSans-70" x="99.707031"/>
     <use xlink:href="#DejaVuSans-6f" x="163.183594"/>
     <use xlink:href="#DejaVuSans-73" x="224.365234"/>
     <use xlink:href="#DejaVuSans-20" x="276.464844"/>
     <use xlink:href="#DejaVuSans-44" x="308.251953"/>
     <use xlink:href="#DejaVuSans-49" x="385.253906"/>
     <use xlink:href="#DejaVuSans-50" x="414.746094"/>
    </g>
   </g>
   <g id="text_66">
    <!-- R5 10k -->
    <g transform="translate(792.107125 614.81625) scale(0.08 -0.08)">
     <use xlink:href="#DejaVuSans-52"/>
     <use xlink:href="#DejaVuSans-35" x="69.482422"/>
     <use xlink:href="#DejaVuSans-20" x="133.105469"/>
     <use xlink:href="#DejaVuSans-31" x="164.892578"/>
     <use xlink:href="#DejaVuSans-30" x="228.515625"/>
     <use xlink:href="#DejaVuSans-6b" x="292.138672"/>
    </g>
   </g>
   <g id="text_67">
    <!-- +5V -->
    <g transform="translate(761.475875 609.41625) scale(0.08 -0.08)">
     <use xlink:href="#DejaVuSans-2b"/>
     <use xlink:href="#DejaVuSans-35" x="83.789062"/>
     <use xlink:href="#DejaVuSans-56" x="147.412109"/>
    </g>
   </g>
   <g id="text_68">
    <!-- R8 10k -->
    <g transform="translate(806.507125 614.81625) scale(0.08 -0.08)">
     <use xlink:href="#DejaVuSans-52"/>
     <use xlink:href="#DejaVuSans-38" x="69.482422"/>
     <use xlink:href="#DejaVuSans-20" x="133.105469"/>
     <use xlink:href="#DejaVuSans-31" x="164.892578"/>
     <use xlink:href="#DejaVuSans-30" x="228.515625"/>
     <use xlink:href="#DejaVuSans-6b" x="292.138672"/>
    </g>
   </g>
   <g id="text_69">
    <!-- +5V -->
    <g transform="translate(775.875875 609.41625) scale(0.08 -0.08)">
     <use xlink:href="#DejaVuSans-2b"/>
     <use xlink:href="#DejaVuSans-35" x="83.789062"/>
     <use xlink:href="#DejaVuSans-56" x="147.412109"/>
    </g>
   </g>
   <g id="text_70">
    <!-- R_A2 10k -->
    <g transform="translate(816.170875 614.59375) scale(0.08 -0.08)">
     <use xlink:href="#DejaVuSans-52"/>
     <use xlink:href="#DejaVuSans-5f" x="69.482422"/>
     <use xlink:href="#DejaVuSans-41" x="119.482422"/>
     <use xlink:href="#DejaVuSans-32" x="187.890625"/>
     <use xlink:href="#DejaVuSans-20" x="251.513672"/>
     <use xlink:href="#DejaVuSans-31" x="283.300781"/>
     <use xlink:href="#DejaVuSans-30" x="346.923828"/>
     <use xlink:href="#DejaVuSans-6b" x="410.546875"/>
    </g>
   </g>
   <g id="text_71">
    <!-- +5V -->
    <g transform="translate(790.275875 609.41625) scale(0.08 -0.08)">
     <use xlink:href="#DejaVuSans-2b"/>
     <use xlink:href="#DejaVuSans-35" x="83.789062"/>
     <use xlink:href="#DejaVuSans-56" x="147.412109"/>
    </g>
   </g>
   <g id="text_72">
    <!-- A0  A1  A2   MCP23017 Address -->
    <g style="fill: #008080" transform="translate(789.585875 751.8875) scale(0.08 -0.08)">
     <use xlink:href="#DejaVuSans-41"/>
     <use xlink:href="#DejaVuSans-30" x="68.408203"/>
     <use xlink:href="#DejaVuSans-20" x="132.03125"/>
     <use xlink:href="#DejaVuSans-20" x="163.818359"/>
     <use xlink:href="#DejaVuSans-41" x="195.605469"/>
     <use xlink:href="#DejaVuSans-31" x="264.013672"/>
     <use xlink:href="#DejaVuSans-20" x="327.636719"/>
     <use xlink:href="#DejaVuSans-20" x="359.423828"/>
     <use xlink:href="#DejaVuSans-41" x="391.210938"/>
     <use xlink:href="#DejaVuSans-32" x="459.619141"/>
     <use xlink:href="#DejaVuSans-20" x="523.242188"/>
     <use xlink:href="#DejaVuSans-20" x="555.029297"/>
     <use xlink:href="#DejaVuSans-20" x="586.816406"/>
     <use xlink:href="#DejaVuSans-4d" x="618.603516"/>
     <use xlink:href="#DejaVuSans-43" x="704.882812"/>
     <use xlink:href="#DejaVuSans-50" x="774.707031"/>
     <use xlink:href="#DejaVuSans-32" x="835.009766"/>
     <use xlink:href="#DejaVuSans-33" x="898.632812"/>
     <use xlink:href="#DejaVuSans-30" x="962.255859"/>
     <use xlink:href="#DejaVuSans-31" x="1025.878906"/>
     <use xlink:href="#DejaVuSans-37" x="1089.501953"/>
     <use xlink:href="#DejaVuSans-20" x="1153.125"/>
     <use xlink:href="#DejaVuSans-41" x="1184.912109"/>
     <use xlink:href="#DejaVuSans-64" x="1251.570312"/>
     <use xlink:href="#DejaVuSans-64" x="1315.046875"/>
     <use xlink:href="#DejaVuSans-72" x="1378.523438"/>
     <use xlink:href="#DejaVuSans-65" x="1417.386719"/>
     <use xlink:href="#DejaVuSans-73" x="1478.910156"/>
     <use xlink:href="#DejaVuSans-73" x="1531.009766"/>
    </g>
   </g>
   <g id="text_73">
    <!-- GND -->
    <g transform="translate(410.258219 82.568438) scale(0.14 -0.14)">
     <use xlink:href="#DejaVuSans-47"/>
     <use xlink:href="#DejaVuSans-4e" x="77.490234"/>
     <use xlink:href="#DejaVuSans-44" x="152.294922"/>
    </g>
   </g>
   <g id="text_74">
    <!-- VCC -->
    <g transform="translate(386.544625 82.568438) scale(0.14 -0.14)">
     <use xlink:href="#DejaVuSans-56"/>
     <use xlink:href="#DejaVuSans-43" x="68.408203"/>
     <use xlink:href="#DejaVuSans-43" x="138.232422"/>
    </g>
   </g>
   <g id="text_75">
    <!-- SCK -->
    <g transform="translate(361.986656 82.568438) scale(0.14 -0.14)">
     <defs>
      <path id="DejaVuSans-4b" d="M 628 4666 
L 1259 4666 
L 1259 2694 
L 3353 4666 
L 4166 4666 
L 1850 2491 
L 4331 0 
L 3500 0 
L 1259 2247 
L 1259 0 
L 628 0 
L 628 4666 
z
" transform="scale(0.015625)"/>
     </defs>
     <use xlink:href="#DejaVuSans-53"/>
     <use xlink:href="#DejaVuSans-43" x="63.476562"/>
     <use xlink:href="#DejaVuSans-4b" x="133.300781"/>
    </g>
   </g>
   <g id="text_76">
    <!-- SDA -->
    <g transform="translate(336.209156 82.568438) scale(0.14 -0.14)">
     <use xlink:href="#DejaVuSans-53"/>
     <use xlink:href="#DejaVuSans-44" x="63.476562"/>
     <use xlink:href="#DejaVuSans-41" x="138.728516"/>
    </g>
   </g>
   <g id="text_77">
    <!-- SSD1306 -->
    <g transform="translate(366.57025 118.01625) scale(0.08 -0.08)">
     <use xlink:href="#DejaVuSans-53"/>
     <use xlink:href="#DejaVuSans-53" x="63.476562"/>
     <use xlink:href="#DejaVuSans-44" x="126.953125"/>
     <use xlink:href="#DejaVuSans-31" x="203.955078"/>
     <use xlink:href="#DejaVuSans-33" x="267.578125"/>
     <use xlink:href="#DejaVuSans-30" x="331.201172"/>
     <use xlink:href="#DejaVuSans-36" x="394.824219"/>
    </g>
    <!-- OLED 0.96in -->
    <g transform="translate(360.10025 125.75875) scale(0.08 -0.08)">
     <defs>
      <path id="DejaVuSans-2e" d="M 684 794 
L 1344 794 
L 1344 0 
L 684 0 
L 684 794 
z
" transform="scale(0.015625)"/>
      <path id="DejaVuSans-39" d="M 703 97 
L 703 672 
Q 941 559 1184 500 
Q 1428 441 1663 441 
Q 2288 441 2617 861 
Q 2947 1281 2994 2138 
Q 2813 1869 2534 1725 
Q 2256 1581 1919 1581 
Q 1219 1581 811 2004 
Q 403 2428 403 3163 
Q 403 3881 828 4315 
Q 1253 4750 1959 4750 
Q 2769 4750 3195 4129 
Q 3622 3509 3622 2328 
Q 3622 1225 3098 567 
Q 2575 -91 1691 -91 
Q 1453 -91 1209 -44 
Q 966 3 703 97 
z
M 1959 2075 
Q 2384 2075 2632 2365 
Q 2881 2656 2881 3163 
Q 2881 3666 2632 3958 
Q 2384 4250 1959 4250 
Q 1534 4250 1286 3958 
Q 1038 3666 1038 3163 
Q 1038 2656 1286 2365 
Q 1534 2075 1959 2075 
z
" transform="scale(0.015625)"/>
      <path id="DejaVuSans-69" d="M 603 3500 
L 1178 3500 
L 1178 0 
L 603 0 
L 603 3500 
z
M 603 4863 
L 1178 4863 
L 1178 4134 
L 603 4134 
L 603 4863 
z
" transform="scale(0.015625)"/>
     </defs>
     <use xlink:href="#DejaVuSans-4f"/>
     <use xlink:href="#DejaVuSans-4c" x="78.710938"/>
     <use xlink:href="#DejaVuSans-45" x="134.423828"/>
     <use xlink:href="#DejaVuSans-44" x="197.607422"/>
     <use xlink:href="#DejaVuSans-20" x="274.609375"/>
     <use xlink:href="#DejaVuSans-30" x="306.396484"/>
     <use xlink:href="#DejaVuSans-2e" x="370.019531"/>
     <use xlink:href="#DejaVuSans-39" x="401.806641"/>
     <use xlink:href="#DejaVuSans-36" x="465.429688"/>
     <use xlink:href="#DejaVuSans-69" x="529.052734"/>
     <use xlink:href="#DejaVuSans-6e" x="556.835938"/>
    </g>
   </g>
   <g id="text_78">
    <!-- +5V -->
    <g transform="translate(392.475875 42.41625) scale(0.08 -0.08)">
     <use xlink:href="#DejaVuSans-2b"/>
     <use xlink:href="#DejaVuSans-35" x="83.789062"/>
     <use xlink:href="#DejaVuSans-56" x="147.412109"/>
    </g>
   </g>
   <g id="text_79">
    <!-- SCL -->
    <g transform="translate(365.692906 70.998906) scale(0.07 -0.07)">
     <use xlink:href="#DejaVuSans-53"/>
     <use xlink:href="#DejaVuSans-43" x="63.476562"/>
     <use xlink:href="#DejaVuSans-4c" x="133.300781"/>
    </g>
   </g>
   <g id="text_80">
    <!-- SDA -->
    <g transform="translate(339.859078 70.998906) scale(0.07 -0.07)">
     <use xlink:href="#DejaVuSans-53"/>
     <use xlink:href="#DejaVuSans-44" x="63.476562"/>
     <use xlink:href="#DejaVuSans-41" x="138.728516"/>
    </g>
   </g>
   <g id="text_81">
    <!-- P1 -->
    <g transform="translate(1175.109 321.543125) scale(0.14 -0.14)">
     <use xlink:href="#DejaVuSans-50"/>
     <use xlink:href="#DejaVuSans-31" x="60.302734"/>
    </g>
   </g>
   <g id="text_82">
    <!-- P2 -->
    <g transform="translate(1175.109 335.943125) scale(0.14 -0.14)">
     <use xlink:href="#DejaVuSans-50"/>
     <use xlink:href="#DejaVuSans-32" x="60.302734"/>
    </g>
   </g>
   <g id="text_83">
    <!-- P3 -->
    <g transform="translate(1175.109 350.343125) scale(0.14 -0.14)">
     <use xlink:href="#DejaVuSans-50"/>
     <use xlink:href="#DejaVuSans-33" x="60.302734"/>
    </g>
   </g>
   <g id="text_84">
    <!-- J10_A -->
    <g transform="translate(1131.278531 334.065078) scale(0.07 -0.07)">
     <use xlink:href="#DejaVuSans-4a"/>
     <use xlink:href="#DejaVuSans-31" x="29.492188"/>
     <use xlink:href="#DejaVuSans-30" x="93.115234"/>
     <use xlink:href="#DejaVuSans-5f" x="156.738281"/>
     <use xlink:href="#DejaVuSans-41" x="206.738281"/>
    </g>
    <!-- 2x3 IDC -->
    <g transform="translate(1127.099859 341.034453) scale(0.07 -0.07)">
     <use xlink:href="#DejaVuSans-32"/>
     <use xlink:href="#DejaVuSans-78" x="63.623047"/>
     <use xlink:href="#DejaVuSans-33" x="122.802734"/>
     <use xlink:href="#DejaVuSans-20" x="186.425781"/>
     <use xlink:href="#DejaVuSans-49" x="218.212891"/>
     <use xlink:href="#DejaVuSans-44" x="247.705078"/>
     <use xlink:href="#DejaVuSans-43" x="324.707031"/>
    </g>
   </g>
   <g id="text_85">
    <!-- P1 -->
    <g transform="translate(1175.109 411.543125) scale(0.14 -0.14)">
     <use xlink:href="#DejaVuSans-50"/>
     <use xlink:href="#DejaVuSans-31" x="60.302734"/>
    </g>
   </g>
   <g id="text_86">
    <!-- P2 -->
    <g transform="translate(1175.109 425.943125) scale(0.14 -0.14)">
     <use xlink:href="#DejaVuSans-50"/>
     <use xlink:href="#DejaVuSans-32" x="60.302734"/>
    </g>
   </g>
   <g id="text_87">
    <!-- P3 -->
    <g transform="translate(1175.109 440.343125) scale(0.14 -0.14)">
     <use xlink:href="#DejaVuSans-50"/>
     <use xlink:href="#DejaVuSans-33" x="60.302734"/>
    </g>
   </g>
   <g id="text_88">
    <!-- J10_B -->
    <g transform="translate(1131.271422 424.065078) scale(0.07 -0.07)">
     <use xlink:href="#DejaVuSans-4a"/>
     <use xlink:href="#DejaVuSans-31" x="29.492188"/>
     <use xlink:href="#DejaVuSans-30" x="93.115234"/>
     <use xlink:href="#DejaVuSans-5f" x="156.738281"/>
     <use xlink:href="#DejaVuSans-42" x="206.738281"/>
    </g>
    <!-- 2x3 IDC -->
    <g transform="translate(1127.099859 431.034453) scale(0.07 -0.07)">
     <use xlink:href="#DejaVuSans-32"/>
     <use xlink:href="#DejaVuSans-78" x="63.623047"/>
     <use xlink:href="#DejaVuSans-33" x="122.802734"/>
     <use xlink:href="#DejaVuSans-20" x="186.425781"/>
     <use xlink:href="#DejaVuSans-49" x="218.212891"/>
     <use xlink:href="#DejaVuSans-44" x="247.705078"/>
     <use xlink:href="#DejaVuSans-43" x="324.707031"/>
    </g>
   </g>
   <g id="text_89">
    <!-- P1 -->
    <g transform="translate(1175.109 501.543125) scale(0.14 -0.14)">
     <use xlink:href="#DejaVuSans-50"/>
     <use xlink:href="#DejaVuSans-31" x="60.302734"/>
    </g>
   </g>
   <g id="text_90">
    <!-- P2 -->
    <g transform="translate(1175.109 515.943125) scale(0.14 -0.14)">
     <use xlink:href="#DejaVuSans-50"/>
     <use xlink:href="#DejaVuSans-32" x="60.302734"/>
    </g>
   </g>
   <g id="text_91">
    <!-- P3 -->
    <g transform="translate(1175.109 530.343125) scale(0.14 -0.14)">
     <use xlink:href="#DejaVuSans-50"/>
     <use xlink:href="#DejaVuSans-33" x="60.302734"/>
    </g>
   </g>
   <g id="text_92">
    <!-- J10_C -->
    <g transform="translate(1131.228766 514.065078) scale(0.07 -0.07)">
     <use xlink:href="#DejaVuSans-4a"/>
     <use xlink:href="#DejaVuSans-31" x="29.492188"/>
     <use xlink:href="#DejaVuSans-30" x="93.115234"/>
     <use xlink:href="#DejaVuSans-5f" x="156.738281"/>
     <use xlink:href="#DejaVuSans-43" x="206.738281"/>
    </g>
    <!-- 2x3 IDC -->
    <g transform="translate(1127.099859 521.034453) scale(0.07 -0.07)">
     <use xlink:href="#DejaVuSans-32"/>
     <use xlink:href="#DejaVuSans-78" x="63.623047"/>
     <use xlink:href="#DejaVuSans-33" x="122.802734"/>
     <use xlink:href="#DejaVuSans-20" x="186.425781"/>
     <use xlink:href="#DejaVuSans-49" x="218.212891"/>
     <use xlink:href="#DejaVuSans-44" x="247.705078"/>
     <use xlink:href="#DejaVuSans-43" x="324.707031"/>
    </g>
   </g>
   <g id="text_93">
    <!-- Motors and -->
    <g style="fill: #008000" transform="translate(1223.664703 423.808281) scale(0.09 -0.09)">
     <use xlink:href="#DejaVuSans-4d"/>
     <use xlink:href="#DejaVuSans-6f" x="86.279297"/>
     <use xlink:href="#DejaVuSans-74" x="147.460938"/>
     <use xlink:href="#DejaVuSans-6f" x="186.669922"/>
     <use xlink:href="#DejaVuSans-72" x="247.851562"/>
     <use xlink:href="#DejaVuSans-73" x="288.964844"/>
     <use xlink:href="#DejaVuSans-20" x="341.064453"/>
     <use xlink:href="#DejaVuSans-61" x="372.851562"/>
     <use xlink:href="#DejaVuSans-6e" x="434.130859"/>
     <use xlink:href="#DejaVuSans-64" x="497.509766"/>
    </g>
    <!-- Sensors -->
    <g style="fill: #008000" transform="translate(1231.139625 432.518594) scale(0.09 -0.09)">
     <use xlink:href="#DejaVuSans-53"/>
     <use xlink:href="#DejaVuSans-65" x="63.476562"/>
     <use xlink:href="#DejaVuSans-6e" x="125"/>
     <use xlink:href="#DejaVuSans-73" x="188.378906"/>
     <use xlink:href="#DejaVuSans-6f" x="240.478516"/>
     <use xlink:href="#DejaVuSans-72" x="301.660156"/>
     <use xlink:href="#DejaVuSans-73" x="342.773438"/>
    </g>
   </g>
   <g id="text_94">
    <!-- TEST -->
    <g style="fill: #808080" transform="translate(32.955875 442.01625) scale(0.08 -0.08)">
     <use xlink:href="#DejaVuSans-54"/>
     <use xlink:href="#DejaVuSans-45" x="61.083984"/>
     <use xlink:href="#DejaVuSans-53" x="124.267578"/>
     <use xlink:href="#DejaVuSans-54" x="187.744141"/>
    </g>
    <!-- BED -->
    <g style="fill: #808080" transform="translate(34.557125 449.75875) scale(0.08 -0.08)">
     <use xlink:href="#DejaVuSans-42"/>
     <use xlink:href="#DejaVuSans-45" x="68.603516"/>
     <use xlink:href="#DejaVuSans-44" x="131.787109"/>
    </g>
   </g>
   <g id="text_95">
    <!-- GND | 5V+ -->
    <g style="fill: #808080" transform="translate(46.414 481.79375) scale(0.08 -0.08)">
     <defs>
      <path id="DejaVuSans-7c" d="M 1344 4891 
L 1344 -1509 
L 813 -1509 
L 813 4891 
L 1344 4891 
z
" transform="scale(0.015625)"/>
     </defs>
     <use xlink:href="#DejaVuSans-47"/>
     <use xlink:href="#DejaVuSans-4e" x="77.490234"/>
     <use xlink:href="#DejaVuSans-44" x="152.294922"/>
     <use xlink:href="#DejaVuSans-20" x="229.296875"/>
     <use xlink:href="#DejaVuSans-7c" x="261.083984"/>
     <use xlink:href="#DejaVuSans-20" x="294.775391"/>
     <use xlink:href="#DejaVuSans-35" x="326.5625"/>
     <use xlink:href="#DejaVuSans-56" x="390.185547"/>
     <use xlink:href="#DejaVuSans-2b" x="458.59375"/>
    </g>
   </g>
   <g id="text_96">
    <!-- Motor Level Controller - Cryptographic Beings -->
    <g transform="translate(412.076969 15.543125) scale(0.14 -0.14)">
     <defs>
      <path id="DejaVuSans-76" d="M 191 3500 
L 800 3500 
L 1894 563 
L 2988 3500 
L 3597 3500 
L 2284 0 
L 1503 0 
L 191 3500 
z
" transform="scale(0.015625)"/>
      <path id="DejaVuSans-6c" d="M 603 4863 
L 1178 4863 
L 1178 0 
L 603 0 
L 603 4863 
z
" transform="scale(0.015625)"/>
      <path id="DejaVuSans-79" d="M 2059 -325 
Q 1816 -950 1584 -1140 
Q 1353 -1331 966 -1331 
L 506 -1331 
L 506 -850 
L 844 -850 
Q 1081 -850 1212 -737 
Q 1344 -625 1503 -206 
L 1606 56 
L 191 3500 
L 800 3500 
L 1894 763 
L 2988 3500 
L 3597 3500 
L 2059 -325 
z
" transform="scale(0.015625)"/>
      <path id="DejaVuSans-67" d="M 2906 1791 
Q 2906 2416 2648 2759 
Q 2391 3103 1925 3103 
Q 1463 3103 1205 2759 
Q 947 2416 947 1791 
Q 947 1169 1205 825 
Q 1463 481 1925 481 
Q 2391 481 2648 825 
Q 2906 1169 2906 1791 
z
M 3481 434 
Q 3481 -459 3084 -895 
Q 2688 -1331 1869 -1331 
Q 1566 -1331 1297 -1286 
Q 1028 -1241 775 -1147 
L 775 -588 
Q 1028 -725 1275 -790 
Q 1522 -856 1778 -856 
Q 2344 -856 2625 -561 
Q 2906 -266 2906 331 
L 2906 616 
Q 2728 306 2450 153 
Q 2172 0 1784 0 
Q 1141 0 747 490 
Q 353 981 353 1791 
Q 353 2603 747 3093 
Q 1141 3584 1784 3584 
Q 2172 3584 2450 3431 
Q 2728 3278 2906 2969 
L 2906 3500 
L 3481 3500 
L 3481 434 
z
" transform="scale(0.015625)"/>
      <path id="DejaVuSans-68" d="M 3513 2113 
L 3513 0 
L 2938 0 
L 2938 2094 
Q 2938 2591 2744 2837 
Q 2550 3084 2163 3084 
Q 1697 3084 1428 2787 
Q 1159 2491 1159 1978 
L 1159 0 
L 581 0 
L 581 4863 
L 1159 4863 
L 1159 2956 
Q 1366 3272 1645 3428 
Q 1925 3584 2291 3584 
Q 2894 3584 3203 3211 
Q 3513 2838 3513 2113 
z
" transform="scale(0.015625)"/>
      <path id="DejaVuSans-63" d="M 3122 3366 
L 3122 2828 
Q 2878 2963 2633 3030 
Q 2388 3097 2138 3097 
Q 1578 3097 1268 2742 
Q 959 2388 959 1747 
Q 959 1106 1268 751 
Q 1578 397 2138 397 
Q 2388 397 2633 464 
Q 2878 531 3122 666 
L 3122 134 
Q 2881 22 2623 -34 
Q 2366 -91 2075 -91 
Q 1284 -91 818 406 
Q 353 903 353 1747 
Q 353 2603 823 3093 
Q 1294 3584 2113 3584 
Q 2378 3584 2631 3529 
Q 2884 3475 3122 3366 
z
" transform="scale(0.015625)"/>
     </defs>
     <use xlink:href="#DejaVuSans-4d"/>
     <use xlink:href="#DejaVuSans-6f" x="86.279297"/>
     <use xlink:href="#DejaVuSans-74" x="147.460938"/>
     <use xlink:href="#DejaVuSans-6f" x="186.669922"/>
     <use xlink:href="#DejaVuSans-72" x="247.851562"/>
     <use xlink:href="#DejaVuSans-20" x="288.964844"/>
     <use xlink:href="#DejaVuSans-4c" x="320.751953"/>
     <use xlink:href="#DejaVuSans-65" x="374.714844"/>
     <use xlink:href="#DejaVuSans-76" x="436.238281"/>
     <use xlink:href="#DejaVuSans-65" x="495.417969"/>
     <use xlink:href="#DejaVuSans-6c" x="556.941406"/>
     <use xlink:href="#DejaVuSans-20" x="584.724609"/>
     <use xlink:href="#DejaVuSans-43" x="616.511719"/>
     <use xlink:href="#DejaVuSans-6f" x="686.335938"/>
     <use xlink:href="#DejaVuSans-6e" x="747.517578"/>
     <use xlink:href="#DejaVuSans-74" x="810.896484"/>
     <use xlink:href="#DejaVuSans-72" x="850.105469"/>
     <use xlink:href="#DejaVuSans-6f" x="888.96875"/>
     <use xlink:href="#DejaVuSans-6c" x="950.150391"/>
     <use xlink:href="#DejaVuSans-6c" x="977.933594"/>
     <use xlink:href="#DejaVuSans-65" x="1005.716797"/>
     <use xlink:href="#DejaVuSans-72" x="1067.240234"/>
     <use xlink:href="#DejaVuSans-20" x="1108.353516"/>
     <use xlink:href="#DejaVuSans-2d" x="1140.140625"/>
     <use xlink:href="#DejaVuSans-20" x="1176.224609"/>
     <use xlink:href="#DejaVuSans-43" x="1208.011719"/>
     <use xlink:href="#DejaVuSans-72" x="1277.835938"/>
     <use xlink:href="#DejaVuSans-79" x="1318.949219"/>
     <use xlink:href="#DejaVuSans-70" x="1378.128906"/>
     <use xlink:href="#DejaVuSans-74" x="1441.605469"/>
     <use xlink:href="#DejaVuSans-6f" x="1480.814453"/>
     <use xlink:href="#DejaVuSans-67" x="1541.996094"/>
     <use xlink:href="#DejaVuSans-72" x="1605.472656"/>
     <use xlink:href="#DejaVuSans-61" x="1646.585938"/>
     <use xlink:href="#DejaVuSans-70" x="1707.865234"/>
     <use xlink:href="#DejaVuSans-68" x="1771.341797"/>
     <use xlink:href="#DejaVuSans-69" x="1834.720703"/>
     <use xlink:href="#DejaVuSans-63" x="1862.503906"/>
     <use xlink:href="#DejaVuSans-20" x="1917.484375"/>
     <use xlink:href="#DejaVuSans-42" x="1949.271484"/>
     <use xlink:href="#DejaVuSans-65" x="2017.875"/>
     <use xlink:href="#DejaVuSans-69" x="2079.398438"/>
     <use xlink:href="#DejaVuSans-6e" x="2107.181641"/>
     <use xlink:href="#DejaVuSans-67" x="2170.560547"/>
     <use xlink:href="#DejaVuSans-73" x="2234.037109"/>
    </g>
   </g>
   <g id="text_97">
    <!-- Components from PCB photos IMG 0707-0711 -->
    <g style="fill: #808080" transform="translate(468.526031 42.963438) scale(0.09 -0.09)">
     <defs>
      <path id="DejaVuSans-6d" d="M 3328 2828 
Q 3544 3216 3844 3400 
Q 4144 3584 4550 3584 
Q 5097 3584 5394 3201 
Q 5691 2819 5691 2113 
L 5691 0 
L 5113 0 
L 5113 2094 
Q 5113 2597 4934 2840 
Q 4756 3084 4391 3084 
Q 3944 3084 3684 2787 
Q 3425 2491 3425 1978 
L 3425 0 
L 2847 0 
L 2847 2094 
Q 2847 2600 2669 2842 
Q 2491 3084 2119 3084 
Q 1678 3084 1418 2786 
Q 1159 2488 1159 1978 
L 1159 0 
L 581 0 
L 581 3500 
L 1159 3500 
L 1159 2956 
Q 1356 3278 1631 3431 
Q 1906 3584 2284 3584 
Q 2666 3584 2933 3390 
Q 3200 3197 3328 2828 
z
" transform="scale(0.015625)"/>
      <path id="DejaVuSans-66" d="M 2375 4863 
L 2375 4384 
L 1825 4384 
Q 1516 4384 1395 4259 
Q 1275 4134 1275 3809 
L 1275 3500 
L 2222 3500 
L 2222 3053 
L 1275 3053 
L 1275 0 
L 697 0 
L 697 3053 
L 147 3053 
L 147 3500 
L 697 3500 
L 697 3744 
Q 697 4328 969 4595 
Q 1241 4863 1831 4863 
L 2375 4863 
z
" transform="scale(0.015625)"/>
     </defs>
     <use xlink:href="#DejaVuSans-43"/>
     <use xlink:href="#DejaVuSans-6f" x="69.824219"/>
     <use xlink:href="#DejaVuSans-6d" x="131.005859"/>
     <use xlink:href="#DejaVuSans-70" x="228.417969"/>
     <use xlink:href="#DejaVuSans-6f" x="291.894531"/>
     <use xlink:href="#DejaVuSans-6e" x="353.076172"/>
     <use xlink:href="#DejaVuSans-65" x="416.455078"/>
     <use xlink:href="#DejaVuSans-6e" x="477.978516"/>
     <use xlink:href="#DejaVuSans-74" x="541.357422"/>
     <use xlink:href="#DejaVuSans-73" x="580.566406"/>
     <use xlink:href="#DejaVuSans-20" x="632.666016"/>
     <use xlink:href="#DejaVuSans-66" x="664.453125"/>
     <use xlink:href="#DejaVuSans-72" x="699.658203"/>
     <use xlink:href="#DejaVuSans-6f" x="738.521484"/>
     <use xlink:href="#DejaVuSans-6d" x="799.703125"/>
     <use xlink:href="#DejaVuSans-20" x="897.115234"/>
     <use xlink:href="#DejaVuSans-50" x="928.902344"/>
     <use xlink:href="#DejaVuSans-43" x="989.205078"/>
     <use xlink:href="#DejaVuSans-42" x="1059.029297"/>
     <use xlink:href="#DejaVuSans-20" x="1127.632812"/>
     <use xlink:href="#DejaVuSans-70" x="1159.419922"/>
     <use xlink:href="#DejaVuSans-68" x="1222.896484"/>
     <use xlink:href="#DejaVuSans-6f" x="1286.275391"/>
     <use xlink:href="#DejaVuSans-74" x="1347.457031"/>
     <use xlink:href="#DejaVuSans-6f" x="1386.666016"/>
     <use xlink:href="#DejaVuSans-73" x="1447.847656"/>
     <use xlink:href="#DejaVuSans-20" x="1499.947266"/>
     <use xlink:href="#DejaVuSans-49" x="1531.734375"/>
     <use xlink:href="#DejaVuSans-4d" x="1561.226562"/>
     <use xlink:href="#DejaVuSans-47" x="1647.505859"/>
     <use xlink:href="#DejaVuSans-20" x="1724.996094"/>
     <use xlink:href="#DejaVuSans-30" x="1756.783203"/>
     <use xlink:href="#DejaVuSans-37" x="1820.40625"/>
     <use xlink:href="#DejaVuSans-30" x="1884.029297"/>
     <use xlink:href="#DejaVuSans-37" x="1947.652344"/>
     <use xlink:href="#DejaVuSans-2d" x="2011.275391"/>
     <use xlink:href="#DejaVuSans-30" x="2047.359375"/>
     <use xlink:href="#DejaVuSans-37" x="2110.982422"/>
     <use xlink:href="#DejaVuSans-31" x="2174.605469"/>
     <use xlink:href="#DejaVuSans-31" x="2238.228516"/>
    </g>
   </g>
   <g id="patch_2">
    <path d="M 64.509 226.78 
C 65.225048 226.78 65.911866 226.495511 66.418188 225.989188 
C 66.924511 225.482866 67.209 224.796048 67.209 224.08 
C 67.209 223.363952 66.924511 222.677134 66.418188 222.170812 
C 65.911866 221.664489 65.225048 221.38 64.509 221.38 
C 63.792952 221.38 63.106134 221.664489 62.599812 222.170812 
C 62.093489 222.677134 61.809 223.363952 61.809 224.08 
C 61.809 224.796048 62.093489 225.482866 62.599812 225.989188 
C 63.106134 226.495511 63.792952 226.78 64.509 226.78 
z
" clip-path="url(#pb0d0cdd463)" style="stroke: #000000; stroke-width: 2; stroke-linejoin: miter"/>
   </g>
   <g id="patch_3">
    <path d="M 262.509 244.78 
C 263.225048 244.78 263.911866 244.495511 264.418188 243.989188 
C 264.924511 243.482866 265.209 242.796048 265.209 242.08 
C 265.209 241.363952 264.924511 240.677134 264.418188 240.170812 
C 263.911866 239.664489 263.225048 239.38 262.509 239.38 
C 261.792952 239.38 261.106134 239.664489 260.599812 240.170812 
C 260.093489 240.677134 259.809 241.363952 259.809 242.08 
C 259.809 242.796048 260.093489 243.482866 260.599812 243.989188 
C 261.106134 244.495511 261.792952 244.78 262.509 244.78 
z
" clip-path="url(#pb0d0cdd463)" style="stroke: #000000; stroke-width: 2; stroke-linejoin: miter"/>
   </g>
   <g id="patch_4">
    <path d="M 352.509 226.78 
C 353.225048 226.78 353.911866 226.495511 354.418188 225.989188 
C 354.924511 225.482866 355.209 224.796048 355.209 224.08 
C 355.209 223.363952 354.924511 222.677134 354.418188 222.170812 
C 353.911866 221.664489 353.225048 221.38 352.509 221.38 
C 351.792952 221.38 351.106134 221.664489 350.599812 222.170812 
C 350.093489 222.677134 349.809 223.363952 349.809 224.08 
C 349.809 224.796048 350.093489 225.482866 350.599812 225.989188 
C 351.106134 226.495511 351.792952 226.78 352.509 226.78 
z
" clip-path="url(#pb0d0cdd463)" style="stroke: #000000; stroke-width: 2; stroke-linejoin: miter"/>
   </g>
   <g id="patch_5">
    <path d="M 658.509 226.78 
C 659.225048 226.78 659.911866 226.495511 660.418188 225.989188 
C 660.924511 225.482866 661.209 224.796048 661.209 224.08 
C 661.209 223.363952 660.924511 222.677134 660.418188 222.170812 
C 659.911866 221.664489 659.225048 221.38 658.509 221.38 
C 657.792952 221.38 657.106134 221.664489 656.599812 222.170812 
C 656.093489 222.677134 655.809 223.363952 655.809 224.08 
C 655.809 224.796048 656.093489 225.482866 656.599812 225.989188 
C 657.106134 226.495511 657.792952 226.78 658.509 226.78 
z
" clip-path="url(#pb0d0cdd463)" style="stroke: #000000; stroke-width: 2; stroke-linejoin: miter"/>
   </g>
   <g id="patch_6">
    <path d="M 64.509 442.78 
C 65.225048 442.78 65.911866 442.495511 66.418188 441.989188 
C 66.924511 441.482866 67.209 440.796048 67.209 440.08 
C 67.209 439.363952 66.924511 438.677134 66.418188 438.170812 
C 65.911866 437.664489 65.225048 437.38 64.509 437.38 
C 63.792952 437.38 63.106134 437.664489 62.599812 438.170812 
C 62.093489 438.677134 61.809 439.363952 61.809 440.08 
C 61.809 440.796048 62.093489 441.482866 62.599812 441.989188 
C 63.106134 442.495511 63.792952 442.78 64.509 442.78 
z
" clip-path="url(#pb0d0cdd463)" style="stroke: #000000; stroke-width: 2; stroke-linejoin: miter"/>
   </g>
  </g>
 </g>
 <defs>
  <clipPath id="pb0d0cdd463">
   <rect x="0" y="0" width="1276.458" height="758.36"/>
  </clipPath>
 </defs>
</svg>
