<?xml version="1.0" encoding="UTF-8"?>
<svg id="Layer_1" data-name="Layer 1" xmlns="http://www.w3.org/2000/svg" viewBox="0 0 1927.04 1931.3">
  <defs>
    <style>
      .cls-1 {
        fill: #ee1c4e;
        font-size: 100px;
      }

      .cls-1, .cls-2 {
        font-family: MyriadPro-Regular, 'Myriad Pro';
      }

      .cls-3 {
        fill: #b7b7b7;
      }

      .cls-2 {
        fill: #fff;
        font-size: 125px;
      }

      .cls-4 {
        fill: #121212;
      }

      .cls-5 {
        fill: #07202c;
      }

      .cls-6 {
        letter-spacing: 0em;
      }

      .cls-7 {
        letter-spacing: 0em;
      }

      .cls-8 {
        letter-spacing: 0em;
      }

      .cls-9 {
        letter-spacing: 0em;
      }

      .cls-10 {
        letter-spacing: 0em;
      }

      .cls-11 {
        letter-spacing: 0em;
      }

      .cls-12 {
        letter-spacing: -.01em;
      }

      .cls-13 {
        letter-spacing: 0em;
      }

      .cls-14 {
        fill: none;
        stroke: #b7b7b7;
        stroke-miterlimit: 10;
        stroke-width: 15px;
      }

      .cls-15 {
        letter-spacing: .01em;
      }
    </style>
  </defs>
  <rect class="cls-5" x="2.97" y="3.57" width="1924.06" height="1927.73"/>
  <rect class="cls-4" width="1923.04" height="320"/>
  <text class="cls-2" transform="translate(54.15 195.56)"><tspan class="cls-12" x="0" y="0">C</tspan><tspan x="71.12" y="0">onne</tspan><tspan class="cls-15" x="341.12" y="0">c</tspan><tspan class="cls-8" x="398.74" y="0">t</tspan><tspan x="439.37" y="0">or </tspan><tspan class="cls-9" x="575.37" y="0">t</tspan><tspan x="615.99" y="0">o </tspan><tspan class="cls-7" x="711.11" y="0">c</tspan><tspan class="cls-6" x="766.36" y="0">o</tspan><tspan class="cls-10" x="834.99" y="0">n</tspan><tspan x="903.86" y="0">t</tspan><tspan class="cls-13" x="945.24" y="0">r</tspan><tspan class="cls-6" x="984.86" y="0">oler pl</tspan><tspan class="cls-11" x="1313.61" y="0">a</tspan><tspan class="cls-7" x="1373.36" y="0">t</tspan><tspan class="cls-6" x="1413.98" y="0">e</tspan></text>
  <g>
    <g>
      <g>
        <g>
          <g>
            <circle class="cls-3" cx="369.07" cy="562.4" r="6.91"/>
            <circle class="cls-3" cx="449.31" cy="562.4" r="6.91"/>
            <circle class="cls-3" cx="449.31" cy="641.66" r="6.91"/>
            <circle class="cls-3" cx="369.07" cy="641.66" r="6.91"/>
          </g>
          <g>
            <circle class="cls-14" cx="405.66" cy="602.03" r="93.86"/>
            <rect class="cls-3" x="398.26" y="506.45" width="14.8" height="21.41" rx="3.39" ry="3.39"/>
          </g>
        </g>
        <g>
          <g>
            <circle class="cls-3" cx="741.97" cy="566.08" r="6.91"/>
            <circle class="cls-3" cx="822.21" cy="566.08" r="6.91"/>
            <circle class="cls-3" cx="822.21" cy="645.35" r="6.91"/>
            <circle class="cls-3" cx="741.97" cy="645.35" r="6.91"/>
          </g>
          <g>
            <circle class="cls-14" cx="778.56" cy="605.71" r="93.86"/>
            <rect class="cls-3" x="771.16" y="510.14" width="14.8" height="21.41" rx="3.39" ry="3.39"/>
          </g>
        </g>
        <g>
          <g>
            <circle class="cls-3" cx="1114.86" cy="562.4" r="6.91"/>
            <circle class="cls-3" cx="1195.1" cy="562.4" r="6.91"/>
            <circle class="cls-3" cx="1195.1" cy="641.66" r="6.91"/>
            <circle class="cls-3" cx="1114.86" cy="641.66" r="6.91"/>
          </g>
          <g>
            <circle class="cls-14" cx="1151.45" cy="602.03" r="93.86"/>
            <rect class="cls-3" x="1144.05" y="506.45" width="14.8" height="21.41" rx="3.39" ry="3.39"/>
          </g>
        </g>
        <g>
          <g>
            <circle class="cls-3" cx="1487.76" cy="566.08" r="6.91"/>
            <circle class="cls-3" cx="1568" cy="566.08" r="6.91"/>
            <circle class="cls-3" cx="1568" cy="645.35" r="6.91"/>
            <circle class="cls-3" cx="1487.76" cy="645.35" r="6.91"/>
          </g>
          <g>
            <circle class="cls-14" cx="1524.35" cy="605.71" r="93.86"/>
            <rect class="cls-3" x="1516.95" y="510.14" width="14.8" height="21.41" rx="3.39" ry="3.39"/>
          </g>
        </g>
      </g>
      <g>
        <g>
          <g>
            <circle class="cls-3" cx="369.07" cy="899.25" r="6.91"/>
            <circle class="cls-3" cx="449.31" cy="899.25" r="6.91"/>
            <circle class="cls-3" cx="449.31" cy="978.52" r="6.91"/>
            <circle class="cls-3" cx="369.07" cy="978.52" r="6.91"/>
          </g>
          <g>
            <circle class="cls-14" cx="405.66" cy="938.89" r="93.86"/>
            <rect class="cls-3" x="398.26" y="843.31" width="14.8" height="21.41" rx="3.39" ry="3.39"/>
          </g>
        </g>
        <g>
          <g>
            <circle class="cls-3" cx="741.97" cy="902.94" r="6.91"/>
            <circle class="cls-3" cx="822.21" cy="902.94" r="6.91"/>
            <circle class="cls-3" cx="822.21" cy="982.2" r="6.91"/>
            <circle class="cls-3" cx="741.97" cy="982.2" r="6.91"/>
          </g>
          <g>
            <circle class="cls-14" cx="778.56" cy="942.57" r="93.86"/>
            <rect class="cls-3" x="771.16" y="846.99" width="14.8" height="21.41" rx="3.39" ry="3.39"/>
          </g>
        </g>
        <g>
          <g>
            <circle class="cls-3" cx="1114.86" cy="899.25" r="6.91"/>
            <circle class="cls-3" cx="1195.1" cy="899.25" r="6.91"/>
            <circle class="cls-3" cx="1195.1" cy="978.52" r="6.91"/>
            <circle class="cls-3" cx="1114.86" cy="978.52" r="6.91"/>
          </g>
          <g>
            <circle class="cls-14" cx="1151.45" cy="938.89" r="93.86"/>
            <rect class="cls-3" x="1144.05" y="843.31" width="14.8" height="21.41" rx="3.39" ry="3.39"/>
          </g>
        </g>
        <g>
          <g>
            <circle class="cls-3" cx="1487.76" cy="902.94" r="6.91"/>
            <circle class="cls-3" cx="1568" cy="902.94" r="6.91"/>
            <circle class="cls-3" cx="1568" cy="982.2" r="6.91"/>
            <circle class="cls-3" cx="1487.76" cy="982.2" r="6.91"/>
          </g>
          <g>
            <circle class="cls-14" cx="1524.35" cy="942.57" r="93.86"/>
            <rect class="cls-3" x="1516.95" y="846.99" width="14.8" height="21.41" rx="3.39" ry="3.39"/>
          </g>
        </g>
      </g>
      <g>
        <g>
          <g>
            <circle class="cls-3" cx="369.07" cy="1236.11" r="6.91"/>
            <circle class="cls-3" cx="449.31" cy="1236.11" r="6.91"/>
            <circle class="cls-3" cx="449.31" cy="1315.38" r="6.91"/>
            <circle class="cls-3" cx="369.07" cy="1315.38" r="6.91"/>
          </g>
          <g>
            <circle class="cls-14" cx="405.66" cy="1275.75" r="93.86"/>
            <rect class="cls-3" x="398.26" y="1180.17" width="14.8" height="21.41" rx="3.39" ry="3.39"/>
          </g>
        </g>
        <g>
          <g>
            <circle class="cls-3" cx="741.97" cy="1239.79" r="6.91"/>
            <circle class="cls-3" cx="822.21" cy="1239.79" r="6.91"/>
            <circle class="cls-3" cx="822.21" cy="1319.06" r="6.91"/>
            <circle class="cls-3" cx="741.97" cy="1319.06" r="6.91"/>
          </g>
          <g>
            <circle class="cls-14" cx="778.56" cy="1279.43" r="93.86"/>
            <rect class="cls-3" x="771.16" y="1183.85" width="14.8" height="21.41" rx="3.39" ry="3.39"/>
          </g>
        </g>
        <g>
          <g>
            <circle class="cls-3" cx="1114.86" cy="1236.11" r="6.91"/>
            <circle class="cls-3" cx="1195.1" cy="1236.11" r="6.91"/>
            <circle class="cls-3" cx="1195.1" cy="1315.38" r="6.91"/>
            <circle class="cls-3" cx="1114.86" cy="1315.38" r="6.91"/>
          </g>
          <g>
            <circle class="cls-14" cx="1151.45" cy="1275.75" r="93.86"/>
            <rect class="cls-3" x="1144.05" y="1180.17" width="14.8" height="21.41" rx="3.39" ry="3.39"/>
          </g>
        </g>
        <g>
          <g>
            <circle class="cls-3" cx="1487.76" cy="1239.79" r="6.91"/>
            <circle class="cls-3" cx="1568" cy="1239.79" r="6.91"/>
            <circle class="cls-3" cx="1568" cy="1319.06" r="6.91"/>
            <circle class="cls-3" cx="1487.76" cy="1319.06" r="6.91"/>
          </g>
          <g>
            <circle class="cls-14" cx="1524.35" cy="1279.43" r="93.86"/>
            <rect class="cls-3" x="1516.95" y="1183.85" width="14.8" height="21.41" rx="3.39" ry="3.39"/>
          </g>
        </g>
      </g>
      <g>
        <g>
          <g>
            <circle class="cls-3" cx="369.07" cy="1572.97" r="6.91"/>
            <circle class="cls-3" cx="449.31" cy="1572.97" r="6.91"/>
            <circle class="cls-3" cx="449.31" cy="1652.24" r="6.91"/>
            <circle class="cls-3" cx="369.07" cy="1652.24" r="6.91"/>
          </g>
          <g>
            <circle class="cls-14" cx="405.66" cy="1612.6" r="93.86"/>
            <rect class="cls-3" x="398.26" y="1517.03" width="14.8" height="21.41" rx="3.39" ry="3.39"/>
          </g>
        </g>
        <g>
          <g>
            <circle class="cls-3" cx="741.97" cy="1576.65" r="6.91"/>
            <circle class="cls-3" cx="822.21" cy="1576.65" r="6.91"/>
            <circle class="cls-3" cx="822.21" cy="1655.92" r="6.91"/>
            <circle class="cls-3" cx="741.97" cy="1655.92" r="6.91"/>
          </g>
          <g>
            <circle class="cls-14" cx="778.56" cy="1616.29" r="93.86"/>
            <rect class="cls-3" x="771.16" y="1520.71" width="14.8" height="21.41" rx="3.39" ry="3.39"/>
          </g>
        </g>
        <g>
          <g>
            <circle class="cls-3" cx="1114.86" cy="1572.97" r="6.91"/>
            <circle class="cls-3" cx="1195.1" cy="1572.97" r="6.91"/>
            <circle class="cls-3" cx="1195.1" cy="1652.24" r="6.91"/>
            <circle class="cls-3" cx="1114.86" cy="1652.24" r="6.91"/>
          </g>
          <g>
            <circle class="cls-14" cx="1151.45" cy="1612.6" r="93.86"/>
            <rect class="cls-3" x="1144.05" y="1517.03" width="14.8" height="21.41" rx="3.39" ry="3.39"/>
          </g>
        </g>
        <g>
          <g>
            <circle class="cls-3" cx="1487.76" cy="1576.65" r="6.91"/>
            <circle class="cls-3" cx="1568" cy="1576.65" r="6.91"/>
            <circle class="cls-3" cx="1568" cy="1655.92" r="6.91"/>
            <circle class="cls-3" cx="1487.76" cy="1655.92" r="6.91"/>
          </g>
          <g>
            <circle class="cls-14" cx="1524.35" cy="1616.29" r="93.86"/>
            <rect class="cls-3" x="1516.95" y="1520.71" width="14.8" height="21.41" rx="3.39" ry="3.39"/>
          </g>
        </g>
      </g>
    </g>
    <text class="cls-1" transform="translate(363.94 794.29)"><tspan x="0" y="0">L1</tspan></text>
    <text class="cls-1" transform="translate(739.71 794.29)"><tspan x="0" y="0">L2</tspan></text>
    <text class="cls-1" transform="translate(1115.48 794.29)"><tspan x="0" y="0">L3</tspan></text>
    <text class="cls-1" transform="translate(1491.25 794.29)"><tspan x="0" y="0">L4</tspan></text>
    <text class="cls-1" transform="translate(363.94 1146.06)"><tspan x="0" y="0">L5</tspan></text>
    <text class="cls-1" transform="translate(739.71 1146.06)"><tspan x="0" y="0">L6</tspan></text>
    <text class="cls-1" transform="translate(1115.48 1146.06)"><tspan x="0" y="0">L7</tspan></text>
    <text class="cls-1" transform="translate(1491.25 1146.06)"><tspan x="0" y="0">L8</tspan></text>
    <text class="cls-1" transform="translate(363.94 1475.2)"><tspan x="0" y="0">L9</tspan></text>
    <text class="cls-1" transform="translate(714.06 1475.2)"><tspan x="0" y="0">L10</tspan></text>
    <text class="cls-1" transform="translate(1089.83 1475.2)"><tspan x="0" y="0">L11</tspan></text>
    <text class="cls-1" transform="translate(1465.6 1475.2)"><tspan x="0" y="0">L12</tspan></text>
    <text class="cls-1" transform="translate(338.29 1810.52)"><tspan x="0" y="0">L13</tspan></text>
    <text class="cls-1" transform="translate(714.06 1810.52)"><tspan x="0" y="0">L14</tspan></text>
    <text class="cls-1" transform="translate(1089.83 1810.52)"><tspan x="0" y="0">L15</tspan></text>
    <text class="cls-1" transform="translate(1465.6 1810.52)"><tspan x="0" y="0">L16</tspan></text>
  </g>
</svg>